<?xml version="1.0" encoding="utf-8"?>
<!-- Generator: Adobe Illustrator 19.0.0, SVG Export Plug-In . SVG Version: 6.00 Build 0)  -->
<svg version="1.1" id="layer" xmlns="http://www.w3.org/2000/svg" xmlns:xlink="http://www.w3.org/1999/xlink" x="0px" y="0px"
	 viewBox="-153 -46 652 652" style="enable-background:new -153 -46 652 652;" xml:space="preserve">
<style type="text/css">
	.st0{fill-rule:evenodd;clip-rule:evenodd;fill:#204977;}
	.st1{fill:#204977;}
</style>
<path class="st0" d="M1.5,409.3c0-2.2,1.6-4,3.6-4.3c2.2,0,4,1.5,4.2,3.8v0.2c0.2,0,0.7-0.2,1.1-0.2c-0.2-2.3,1.3-4,3.5-4.3
	c2-0.2,4,1.4,4.2,3.4v0.2c0.5,0,0.7-0.2,1.1-0.2v-0.2c-0.2-2,1.1-4,3.3-4.5c2-0.2,4,1.4,4.5,3.4c0.4,0,0.6-0.2,1.1-0.2
	c-0.5-2.3,0.9-4.3,2.8-4.9c2-0.5,4,0.9,4.7,2.9v0.2c0.4-0.2,0.9-0.2,1.1-0.5c-0.5-2.2,0.7-4.2,2.7-4.9c2-0.7,3.9,0.4,4.9,2.4v0.2
	c0.4-0.2,0.6-0.2,1.1-0.4v-0.2c-0.9-2,0.3-4.3,2.2-4.9c2-0.7,4.3,0.2,5.1,2.2c0.2-0.2,0.7-0.2,0.9-0.5c-0.9-2,0-4.5,2-5.4
	c1.8-0.9,4.3,0,5.1,1.8v0.2c0.5-0.2,0.6-0.4,1.2-0.7c-1.2-2-0.2-4.3,1.5-5.4c1.8-1.1,4-0.4,5.1,1.6h0.2c0.2-0.3,0.7-0.5,0.9-0.7
	c-1.1-2-0.6-4.3,1.1-5.4c1.8-1.1,4.2-0.7,5.4,1.1c0.4-0.2,0.6-0.5,1.1-0.6c-1.4-1.8-1.1-4.3,0.7-5.6c1.6-1.3,4.3-0.9,5.6,0.7v0.2
	c0.2-0.2,0.6-0.6,0.9-0.8c-1.3-1.6-1.1-4,0.2-5.6c1.6-1.3,4-1.1,5.6,0.5c0.4-0.2,0.7-0.5,0.9-0.6V373c-1.5-1.5-1.3-4.1,0.2-5.4
	c1.3-1.6,3.8-1.6,5.4-0.2v0.2c0.3-0.5,0.7-0.6,0.9-0.9c0,0-0.2,0-0.2-0.2c-1.6-1.3-1.6-3.8-0.3-5.4c1.4-1.5,4.1-1.8,5.6-0.5
	c0.2-0.3,0.5-0.5,0.7-0.9c-1.6-1.4-2-3.8-0.7-5.6c1.1-1.5,3.6-2,5.4-0.7h0.2c0.2-0.2,0.4-0.7,0.7-0.9h-0.2c-1.8-1.4-2-3.6-0.9-5.4
	c0.9-2,3.3-2.5,5.1-1.4c0.2,0,0.2,0,0.2,0.3c0.3-0.4,0.5-0.9,0.7-1.1h-0.2c-1.7-1.2-2.5-3.6-1.3-5.4c1.1-1.9,3.4-2.5,5.4-1.6
	c0.2-0.2,0.4-0.7,0.4-0.9v-0.2c-2-0.9-2.6-3.4-1.8-5.2c0.9-1.8,3.1-2.7,5.1-1.8c0.2-0.4,0.4-0.6,0.7-1.1c-2-0.9-3.1-3.2-2.2-5.2
	c0.7-2,2.9-2.9,4.9-2.2h0.2c0-0.2,0.2-0.7,0.2-1.2c-2-0.7-3.1-2.9-2.4-4.9c0.7-2,2.6-3.2,4.6-2.4h0.2c0-0.5,0.2-0.9,0.2-1.1v-0.3
	c-2.3-0.4-3.4-2.6-2.9-4.7c0.4-2,2.7-3.3,4.9-2.9c0-0.2,0-0.7,0.2-1.1c-2.2-0.5-3.6-2.5-3.3-4.5c0.3-2,2.2-3.6,4.5-3.1h0.1v-1.4
	c-2.2-0.2-3.5-2.2-3.3-4.3c0-2,2-3.5,4-3.5h0.2v-1.2c-2.2-0.2-4-2-3.8-4c0-2.2,2-3.8,4-3.8c0-0.2,0.2-0.5,0.2-0.7s-0.2-0.4-0.2-0.4
	c-2,0-4-1.8-4-3.8c-0.2-2.3,1.6-4,3.8-4.2v-1.2h-0.2c-2,0.3-4-1.3-4-3.5c-0.2-2,1.1-3.8,3.3-4.3v-1.1h-0.1c-2.3,0.2-4.2-1.1-4.5-3.1
	c-0.2-2.3,1.2-4.3,3.3-4.7c-0.2-0.5-0.2-0.7-0.2-1.1c-2.3,0.4-4.5-0.9-4.9-2.9c-0.5-2,0.7-4.1,2.9-4.7c0-0.4-0.2-0.9-0.2-1.1h-0.2
	c-2,0.7-4-0.7-4.6-2.7c-0.7-2,0.5-4,2.4-4.9c0-0.2-0.2-0.7-0.2-1.1h-0.2c-2,0.9-4.3-0.2-4.9-2.3c-0.9-1.7,0.2-4.2,2.2-4.9
	c-0.2-0.4-0.5-0.9-0.7-1.1c-2,0.9-4.2,0-5.1-2c-0.9-1.7-0.2-4,1.8-5.1c0-0.5-0.2-0.6-0.4-1.1c-2,1.1-4.2,0.2-5.4-1.4
	c-1.1-1.8-0.4-4.3,1.3-5.4h0.2c-0.2-0.4-0.4-0.7-0.7-1.1H113c-1.8,1.1-4.3,0.7-5.1-1.2c-1.1-1.7-0.9-4,0.9-5.3h0.2
	c-0.2-0.5-0.4-0.7-0.7-1.1c-0.2,0-0.2,0-0.2,0.2c-1.8,1.1-4.2,0.9-5.4-0.9c-1.3-1.6-0.9-4.1,0.7-5.6c-0.2-0.2-0.5-0.5-0.7-0.9
	c-1.5,1.3-4.2,1.3-5.6-0.2c-1.3-1.6-1.3-4.1,0.3-5.6h0.2c-0.2-0.5-0.6-0.7-0.9-0.9c-1.6,1.6-4,1.6-5.4,0c-1.5-1.6-1.7-4-0.2-5.6
	c-0.2-0.2-0.4-0.5-0.9-0.9v0.2c-1.6,1.6-4,1.6-5.6,0.2c-1.4-1.4-1.6-3.8-0.2-5.6c-0.2-0.2-0.6-0.5-0.9-0.7c-1.3,1.8-4,2-5.6,0.7
	c-1.7-1.2-2-3.7-0.7-5.4c-0.5-0.4-0.6-0.7-1.1-0.9v0.3c-1.2,1.8-3.6,2-5.4,1.1c-1.7-1.1-2.2-3.5-1.1-5.4v-0.2
	c-0.2-0.2-0.6-0.4-0.9-0.7l-0.2,0.2c-1.1,1.8-3.3,2.5-5.1,1.3c-1.8-1.1-2.7-3.3-1.5-5.4c-0.5-0.2-0.7-0.5-1.2-0.5
	c-0.9,2-3.3,2.7-5.1,1.8c-2-0.9-2.9-3.1-2-5.2c-0.3-0.2-0.7-0.4-0.9-0.6v0.2c-0.8,1.8-3.1,2.9-5.1,2.2c-2-0.9-3.1-3.1-2.2-5.1
	c-0.4-0.3-0.6-0.4-1.1-0.4c-0.9,2-2.9,3.1-4.9,2.4c-2-0.7-3.2-2.7-2.7-4.7v-0.2c-0.2,0-0.7-0.3-1.1-0.3c-0.7,2.3-2.7,3.4-4.7,2.9
	c-2-0.4-3.4-2.6-2.8-4.7v-0.2c-0.5,0-0.7,0-1.1-0.3c-0.5,2.2-2.5,3.6-4.5,3.4c-2.2-0.2-3.5-2.2-3.3-4.5v-0.2h-1.1
	c-0.2,2.2-2.2,3.8-4.2,3.4c-2.2,0-3.7-2.1-3.5-4v-0.2H9.3c-0.2,2.2-2,4.1-4.2,3.8c-2,0-3.6-2-3.6-4H0.8H0.2c0,2-1.5,4-3.7,4
	c-2.1,0.3-3.8-1.6-4-3.8h-1.1v0.2c0,2-1.5,4-3.5,4c-2,0.4-4-1.2-4.3-3.4h-1.3l0.2,0.2c0.2,2.3-1.4,4.3-3.4,4.5c-2,0.2-4-1.1-4.4-3.4
	c-0.5,0.3-0.9,0.3-1.1,0.3v0.2c0.4,2.1-0.9,4.3-2.9,4.7c-2,0.5-4.3-0.6-4.7-2.9c-0.5,0-0.9,0.3-1.4,0.3v0.2c0.7,2-0.4,4-2.4,4.7
	c-2,0.7-4.2-0.2-4.9-2.4c-0.5,0-0.7,0.2-1.1,0.4c0.6,2-0.2,4.3-2.3,5.1c-2,0.7-4.2-0.4-5-2.2v-0.2c-0.3,0.2-0.6,0.4-1.1,0.6
	c0.9,2.1,0.2,4.3-1.8,5.2c-1.7,0.9-4.2,0.2-5.1-1.8c-0.4,0-0.9,0.2-1.1,0.5c0.9,2,0.2,4.3-1.5,5.4c-1.8,1.1-4,0.5-5.1-1.3
	c-0.2,0-0.2,0-0.2-0.2c-0.2,0.2-0.7,0.5-0.9,0.7v0.2c1.2,1.8,0.7,4.3-1.1,5.4c-2,0.9-4.2,0.7-5.6-1.1v-0.3c-0.1,0.5-0.6,0.7-0.8,0.9
	c1.3,1.7,0.8,4.2-0.7,5.4c-1.8,1.3-4.2,1.1-5.6-0.7c-0.2,0.2-0.7,0.4-0.9,0.7c1.3,1.8,1.1,4.2-0.4,5.6c-1.6,1.3-4,1.3-5.4-0.2
	l-0.2-0.2c-0.2,0.5-0.4,0.7-0.9,0.9h0.3c1.3,1.6,1.3,4-0.3,5.6c-1.3,1.6-3.7,1.6-5.3,0c-0.4,0.2-0.7,0.4-0.9,0.9
	c1.5,1.5,1.7,4.1,0.4,5.6c-1.4,1.6-4,1.6-5.6,0.2c-0.2,0.4-0.4,0.7-0.9,0.9h0.3c1.6,1.5,1.9,4,0.6,5.6c-1.1,1.8-3.5,2-5.3,0.9
	l-0.3-0.2c-0.2,0.5-0.4,0.7-0.6,1.1c2,1.3,2.2,3.6,1.1,5.3c-1.1,1.8-3.3,2.3-5.4,1.2c-0.2,0.4-0.4,0.7-0.6,1.1h0.2
	c1.8,1.1,2.4,3.6,1.3,5.4c-1.1,1.6-3.4,2.5-5.4,1.4c-0.2,0.5-0.5,0.7-0.7,1.1h0.2c1.8,1.2,2.7,3.4,1.8,5.1c-0.9,2-3.3,3-5.1,2h-0.3
	c0,0.2-0.2,0.7-0.4,1.1c2,0.7,2.9,3.2,2.2,4.9c-0.7,2-2.8,3.2-4.9,2.3h-0.2c0,0.4-0.3,0.9-0.4,1.1h0.2c2,0.9,3.2,3,2.5,4.9
	c-0.7,2-2.7,3.4-4.9,2.7c-0.2,0.2-0.2,0.7-0.5,1.1h0.2c2,0.6,3.3,2.7,2.9,4.7c-0.6,2-2.7,3.4-4.9,2.9c0,0.4-0.2,0.9-0.2,1.1
	c2.2,0.4,3.5,2.4,3.3,4.7c-0.5,2-2.4,3.3-4.5,3.1h-0.2c0,0.5,0,0.7-0.2,1.1h0.2c2.3,0.5,3.6,2.2,3.4,4.3c-0.2,2.3-2,3.8-4.3,3.5
	c0,0.5,0,1-0.2,1.2h0.2c2.3,0.2,3.8,2,3.8,4.2c-0.2,2-2,3.8-4.2,3.8v0.4v0.7c2.2,0,4,1.8,4.2,3.8c0,2-1.5,3.8-3.8,4h-0.2
	c0.2,0.5,0.2,0.9,0.2,1.2c2.3,0,4,1.5,4.3,3.5c0.2,2-1.1,4-3.4,4.3h-0.2c0.2,0.5,0.2,0.9,0.2,1.4h0.2c2-0.5,3.9,1.1,4.5,3.1
	c0.2,2-1.1,4-3.3,4.5c0,0.4,0.2,0.9,0.2,1.1c2.2-0.5,4.3,0.9,4.9,2.9c0.4,2.1-0.9,4.3-2.9,4.7c0,0.3,0,0.3-0.2,0.3
	c0.2,0.2,0.2,0.7,0.5,1.1c2.2-0.7,4.2,0.4,4.9,2.4c0.6,2-0.5,4.2-2.5,4.9h-0.2c0.2,0.5,0.4,0.9,0.4,1.2h0.2c2-0.7,4.2,0.2,4.9,2.2
	c0.7,2-0.2,4.3-2.2,5.2c0.2,0.5,0.4,0.7,0.4,1.1h0.3c1.7-0.9,4.2,0,5.1,1.8c0.9,1.8,0,4.3-1.8,5.2l-0.2,0.2c0.2,0.2,0.4,0.6,0.7,0.9
	c2-0.9,4.2-0.2,5.4,1.6c1.1,1.7,0.4,4.2-1.3,5.4h-0.2c0.2,0.2,0.4,0.7,0.6,1.1v-0.3c2-1.1,4.3-0.5,5.4,1.4c1.1,1.8,0.9,4-1.1,5.4
	c0.2,0.2,0.4,0.6,0.6,0.9h0.3c1.8-1.3,4.2-0.9,5.3,0.7c1.3,1.8,0.9,4.2-0.6,5.6h-0.3c0.5,0.4,0.7,0.6,0.9,0.9
	c1.6-1.3,4.3-1.1,5.6,0.5c1.3,1.5,1.1,4-0.4,5.4v0.2c0.2,0.3,0.4,0.4,0.9,0.9v-0.2c1.6-1.3,4-1.3,5.3,0.2c1.6,1.3,1.6,3.8,0.3,5.4
	l-0.3,0.2c0.5,0.2,0.7,0.5,0.9,0.6h0.2c1.3-1.6,3.8-1.8,5.4-0.5c1.6,1.6,1.8,4.1,0.4,5.6c0.2,0.2,0.6,0.7,0.9,0.8v-0.2
	c1.3-1.5,3.8-2,5.6-0.7c1.5,1.3,2,3.8,0.7,5.6c0.2,0.2,0.7,0.4,0.8,0.6c1.4-1.8,3.6-2.2,5.6-1.1c1.7,1.1,2.2,3.4,1.1,5.4
	c0.2,0.2,0.7,0.4,0.9,0.7h0.2c1.1-2,3.3-2.7,5.1-1.6c1.8,1.1,2.5,3.4,1.5,5.4c0.2,0.2,0.7,0.4,1.1,0.7v-0.2c0.9-1.8,3.4-2.7,5.1-1.8
	c2,0.9,2.6,3.3,1.8,5.4c0.5,0.2,0.9,0.2,1.1,0.5c0.9-2,3.1-2.9,5-2.2c2,0.6,2.9,2.9,2.3,4.9v0.2c0.4,0.2,0.6,0.2,1.1,0.4v-0.2
	c0.7-2,2.9-3.1,4.9-2.4c2,0.7,3.1,2.7,2.4,4.9c0.5,0.3,0.9,0.3,1.4,0.5v-0.2c0.4-2,2.7-3.4,4.7-2.9c2,0.7,3.3,2.6,2.9,4.9
	c0.2,0,0.7,0.2,1.1,0.2c0.4-2,2.4-3.5,4.4-3.4c2,0.5,3.6,2.5,3.4,4.5c0,0.2,0,0.2-0.2,0.2c0.4,0,0.9,0.2,1.3,0.2v-0.2
	c0.2-2,2.3-3.6,4.3-3.4c2,0.2,3.5,2,3.5,4.3c0.4,0,0.7,0.2,1.1,0.2v-0.2c0.2-2.3,2-3.8,4-3.8c2.2,0.2,3.7,2,3.7,4.3h0.7H1.5z
	 M0.8,397.8c-66.5,0-120.5-54.2-120.5-121.5c0-67,54-121.6,120.5-121.6c66.5,0,120.6,54.5,120.6,121.6
	C121.4,343.6,67.4,397.8,0.8,397.8"/>
<path class="st1" d="M-104.8,322.5l-0.4,0.2l-2.6-5.7l0.4-0.2l0.3,0.6c0.2,0.7,0.8,1,1.4,1.1c0.4,0.1,1-0.1,1.9-0.5l6.5-2.9
	c1.6-0.7,2.9-1.1,4-1.2c1,0,2,0.3,3.1,0.9c1.1,0.6,2,1.8,2.6,3.4c0.8,1.8,1.1,3.2,0.9,4.4c-0.2,1.3-0.7,2.3-1.6,3.1
	c-0.6,0.6-1.8,1.3-3.7,2.1l-6.2,2.9c-1,0.4-1.6,0.8-1.8,1.2c-0.2,0.4-0.2,0.9,0.1,1.5l0.2,0.6l-0.4,0.2l-3.1-6.9l0.5-0.2l0.2,0.7
	c0.3,0.6,0.7,1,1.2,1.1c0.4,0.1,1-0.1,1.9-0.5l7-3.1c0.6-0.2,1.3-0.6,2-1.1c0.7-0.5,1.3-0.9,1.6-1.5c0.3-0.4,0.5-1.1,0.5-1.8
	c0.1-0.6-0.1-1.5-0.5-2.3c-0.4-1.1-1.1-1.9-2-2.5c-0.8-0.6-1.6-0.9-2.5-0.9c-0.9,0.1-2.1,0.5-3.9,1.2l-6.5,2.9
	c-1,0.4-1.5,0.8-1.7,1.2c-0.2,0.5-0.2,1,0.1,1.6L-104.8,322.5z M-110,310.6l-1.1-4.6l10.4-13.5l-9.8,2.3c-1.1,0.3-1.7,0.6-1.9,0.8
	c-0.3,0.4-0.4,0.9-0.2,1.6l0.1,0.6l-0.4,0.1l-1.4-6.1l0.5-0.1l0.1,0.6c0.1,0.7,0.5,1.2,1,1.4c0.3,0.2,0.9,0.1,1.9-0.1l14.5-3.4
	l0.1,0.5l-11.2,14.6l10.5-2.4c1.1-0.2,1.7-0.5,1.9-0.8c0.3-0.4,0.4-0.9,0.2-1.6l-0.1-0.6l0.5-0.1l1.3,6l-0.4,0.1l-0.2-0.6
	c-0.2-0.8-0.5-1.2-1-1.5c-0.3-0.1-0.9,0-1.9,0.2l-11.9,2.7c-0.5,0.6-0.7,1.2-0.9,1.4c-0.1,0.3-0.2,0.7-0.3,1.3c0,0.2,0,0.6,0.2,1.1
	L-110,310.6z M-97.8,275.6l0.5,0l0.2,7.6l-0.5,0v-0.6c0-0.7-0.2-1.3-0.7-1.6c-0.3-0.2-1-0.3-2-0.3l-11.3,0.2c-0.9,0-1.5,0.1-1.8,0.2
	c-0.2,0.1-0.4,0.3-0.6,0.5c-0.2,0.4-0.3,0.8-0.3,1.2l0,0.6h-0.5l-0.1-7.6h0.5v0.6c0,0.7,0.2,1.3,0.7,1.6c0.2,0.2,0.9,0.3,2,0.3
	l11.3-0.2c0.9,0,1.5-0.1,1.8-0.2c0.2-0.1,0.4-0.3,0.6-0.6c0.2-0.4,0.3-0.8,0.3-1.2V275.6z M-112.4,250.1l0.5,0.1
	c0,0.6,0.2,1.2,0.4,1.5c0.3,0.5,0.9,1,1.7,1.4l13.9,8.3l-0.1,0.4l-15.9,4.4c-0.8,0.3-1.3,0.4-1.5,0.5c-0.3,0.2-0.5,0.4-0.7,0.7
	c-0.2,0.3-0.4,0.7-0.5,1.2l-0.5-0.1l0.9-7.1h0.5c0,0.9,0,1.4,0.2,1.7c0.2,0.3,0.4,0.4,0.7,0.5c0.4,0.1,1.1-0.1,2.1-0.3l10.8-3.1
	l-9.5-5.5c-0.9-0.5-1.6-0.8-2-0.8c-0.2-0.1-0.5,0-0.8,0.2c-0.2,0.2-0.5,0.6-0.7,1.2c0,0,0,0.2-0.1,0.2l-0.5-0.1L-112.4,250.1z
	 M-107.2,237.5l6.4,2.6l1.4-3.6c0.4-0.9,0.5-1.6,0.4-2c-0.2-0.6-0.8-1.1-1.7-1.5l0.2-0.5l5.7,2.4l-0.2,0.4c-0.8-0.2-1.4-0.3-1.7-0.3
	c-0.3,0-0.6,0.2-0.9,0.4c-0.2,0.2-0.6,0.7-0.8,1.5l-1.5,3.6l5.4,2.2c0.7,0.3,1.2,0.4,1.3,0.4c0.2,0,0.3-0.1,0.5-0.2
	c0.2-0.1,0.3-0.4,0.5-0.8l1.1-2.9c0.4-0.9,0.6-1.6,0.6-2.1c0.1-0.5-0.1-1-0.3-1.5c-0.3-0.7-0.9-1.6-1.6-2.5l0.2-0.5l3.5,3.1
	l-5.1,12.6l-0.4-0.2l0.3-0.6c0.1-0.4,0.2-0.8,0.1-1.2c0-0.3-0.1-0.6-0.4-0.7c-0.2-0.2-0.7-0.4-1.5-0.7l-10.5-4.3
	c-1-0.4-1.7-0.6-2-0.5c-0.5,0.2-0.8,0.6-1.1,1.3l-0.2,0.6l-0.5-0.2l5.1-12.7l3.6,1.3l-0.2,0.5c-0.9-0.2-1.5-0.2-2-0.2
	c-0.4,0.1-0.7,0.3-1,0.6c-0.3,0.3-0.6,0.8-0.9,1.7L-107.2,237.5z M-77,215.4l-0.4-0.3c-0.6,0.7-1.2,1.2-1.9,1.5
	c-0.7,0.3-1.7,0.5-3,0.6l-6.3,0.3c0.6-1.5,0.7-2.7,0.4-3.7c-0.2-1-0.9-1.8-1.8-2.4c-0.8-0.6-1.7-0.8-2.7-0.7
	c-0.9,0.1-1.7,0.5-2.4,1.1c-0.7,0.6-1.6,1.7-2.6,3.2l-3.5,5.4l0.5,0.2l0.3-0.6c0.4-0.6,0.8-0.9,1.3-0.9c0.3,0,0.9,0.2,1.9,0.8
	l9.5,6.3c0.9,0.6,1.3,0.9,1.5,1.3c0.2,0.5,0.2,1.1-0.3,1.7l-0.4,0.6l0.5,0.2l4.1-6.3l-0.4-0.3l-0.4,0.6c-0.3,0.6-0.8,0.9-1.3,0.9
	c-0.3,0.1-1-0.2-1.9-0.8l-4.3-2.8c0.1-0.1,0.2-0.2,0.3-0.3c0.1-0.2,0.1-0.2,0.2-0.3c0.2-0.2,0.3-0.5,0.5-0.9l10.1-0.5L-77,215.4z
	 M-91.4,220.9l-6.1-3.9c0.3-0.8,0.6-1.4,0.9-1.8c0.6-1,1.4-1.5,2.4-1.8c1-0.2,1.9,0,2.8,0.6c1,0.6,1.5,1.5,1.7,2.6
	c0.1,1.1-0.2,2.4-1.1,3.8c-0.1,0.1-0.1,0.2-0.2,0.3C-91.2,220.7-91.2,220.8-91.4,220.9 M-79.1,191.5l4.3,4.2l-0.3,0.4
	c-1-0.7-1.8-1.1-2.6-1.4c-0.8-0.2-1.6-0.1-2.4,0.1c-0.8,0.2-1.5,0.7-2,1.3c-0.6,0.6-1,1.3-1,2.1c0,0.8,0.2,1.5,0.7,2
	c0.4,0.4,0.9,0.6,1.4,0.6c0.8,0.1,2.4-0.2,4.5-0.9c1.8-0.5,3.1-0.9,3.8-1c0.8-0.1,1.5-0.1,2.2,0.2c0.6,0.2,1.3,0.5,1.8,1
	c1,0.9,1.4,2.2,1.4,3.6c0,1.4-0.6,2.7-1.7,3.9c-0.3,0.4-0.7,0.7-1.1,1c-0.2,0.1-0.7,0.4-1.5,0.9c-0.8,0.4-1.2,0.6-1.4,0.8
	c-0.1,0.2-0.2,0.4-0.2,0.5c0,0.2,0.1,0.4,0.4,0.8l-0.3,0.4l-4.3-4.3l0.3-0.3c1.1,0.8,2,1.2,2.6,1.3c0.8,0.2,1.5,0.1,2.4-0.1
	c0.8-0.3,1.6-0.8,2.2-1.4c0.8-0.8,1.1-1.6,1.2-2.5c0-0.8-0.2-1.5-0.8-2c-0.3-0.4-0.7-0.5-1.2-0.7c-0.4-0.2-1-0.2-1.7,0
	c-0.4,0-1.5,0.3-3.1,0.8c-1.6,0.5-2.8,0.8-3.6,0.9c-0.9,0.2-1.6,0.1-2.2-0.1c-0.7-0.2-1.2-0.6-1.7-1c-0.9-0.9-1.4-2-1.4-3.4
	c0.1-1.3,0.6-2.5,1.6-3.6c0.6-0.7,1.5-1.3,2.5-1.7c0.5-0.2,0.8-0.4,0.9-0.6c0.2-0.1,0.3-0.3,0.3-0.5c0-0.2-0.1-0.5-0.4-0.8
	L-79.1,191.5z M-55.6,194.7l-0.5,0.3c-0.3,0.3-0.7,0.4-1.1,0.5c-0.3,0-0.6,0-0.8-0.1c-0.3-0.2-0.6-0.6-1.2-1.3l-7-9
	c-0.6-0.8-1-1.4-1-1.8c0-0.5,0.3-1,1-1.5l0.4-0.4l-0.3-0.4l-5.9,4.6l0.4,0.4l0.4-0.4c0.3-0.2,0.7-0.4,1.2-0.4c0.3-0.1,0.5,0,0.7,0.1
	c0.4,0.1,0.8,0.6,1.3,1.3l6.9,9c0.7,0.8,1,1.5,1,1.8c0,0.5-0.3,1-0.8,1.5l-0.5,0.4l0.3,0.4l6-4.7L-55.6,194.7z M-46.5,169.8l2,3.6
	l-0.5,0.3c-0.4-0.6-0.7-1-1-1.2c-0.5-0.4-0.9-0.5-1.5-0.5c-0.4,0-1,0.1-1.7,0.5l-2.2,1.1l6.1,12.1c0.4,1,0.9,1.5,1.2,1.7
	c0.5,0.2,1,0.1,1.6-0.2l0.5-0.3l0.2,0.4l-6.7,3.4l-0.2-0.5l0.6-0.3c0.7-0.3,1.1-0.8,1.1-1.3c0-0.3-0.2-0.9-0.6-1.8l-6.1-12l-1.9,0.9
	c-0.8,0.3-1.2,0.7-1.5,1c-0.3,0.3-0.5,0.8-0.6,1.4c0,0.6,0.1,1.2,0.4,1.9l-0.4,0.3l-1.7-3.8L-46.5,169.8z M-26.3,175.1l-6.5,1.8
	l-0.4,2.9c-0.1,0.8-0.1,1.3,0,1.6c0.1,0.3,0.3,0.5,0.5,0.6c0.4,0.1,0.9,0.1,1.7,0l0.1,0.5l-5.3,1.4l-0.1-0.5
	c0.7-0.3,1.1-0.6,1.2-0.9c0.3-0.5,0.6-1.5,0.8-2.8l2.2-15.7l0.5-0.1l9.6,12.6c0.8,1,1.5,1.6,1.9,1.9c0.5,0.2,1.1,0.3,1.8,0.1
	l0.2,0.5L-25,181l-0.1-0.5c0.6-0.2,1-0.5,1.2-0.7c0.3-0.2,0.3-0.5,0.2-0.8c-0.1-0.3-0.4-0.9-0.9-1.6L-26.3,175.1z M-26.9,174.3
	l-4.7-6.1l-1.1,7.7L-26.9,174.3z M-3.9,159.2l0.4,6.1h-0.5c-0.3-1.1-0.6-2-1-2.7c-0.4-0.7-1.1-1.2-1.8-1.5c-0.7-0.4-1.5-0.5-2.3-0.5
	c-0.9,0.1-1.6,0.4-2.2,1c-0.5,0.6-0.8,1.3-0.7,2c0.1,0.5,0.2,1,0.7,1.4c0.5,0.6,1.8,1.4,3.9,2.3c1.7,0.8,2.8,1.4,3.5,1.8
	c0.6,0.5,1.1,1,1.5,1.6c0.4,0.6,0.6,1.3,0.6,2c0.1,1.3-0.3,2.6-1.3,3.6c-1,1-2.2,1.6-3.8,1.7c-0.6,0.1-1,0.1-1.5,0
	c-0.3,0-0.9-0.2-1.7-0.3c-0.9-0.3-1.4-0.4-1.6-0.4c-0.2,0-0.4,0.1-0.5,0.3c-0.1,0.1-0.1,0.5-0.2,0.9h-0.6l-0.4-6l0.5-0.1
	c0.3,1.3,0.6,2.2,1.1,2.8c0.4,0.6,1,1.1,1.8,1.5c0.8,0.3,1.7,0.4,2.6,0.4c1-0.1,1.9-0.4,2.4-1c0.6-0.6,0.9-1.3,0.8-2.1
	c0-0.5-0.2-0.8-0.4-1.3c-0.3-0.4-0.7-0.8-1.2-1.2c-0.4-0.2-1.3-0.7-2.9-1.5c-1.5-0.7-2.6-1.3-3.3-1.7c-0.7-0.5-1.2-0.9-1.6-1.6
	c-0.4-0.6-0.6-1.2-0.7-1.9c0-1.3,0.4-2.4,1.3-3.4c0.9-1,2.1-1.5,3.6-1.6c0.9-0.1,2,0.1,3,0.4c0.5,0.2,0.9,0.3,1,0.3
	c0.2,0,0.4-0.1,0.6-0.2c0.1-0.2,0.2-0.4,0.2-0.9L-3.9,159.2z M16.9,160.3l4.6,1.1l7.6,15.3l2.3-9.9c0.2-1.1,0.2-1.8,0.1-2
	c-0.2-0.5-0.7-0.8-1.4-0.9l-0.6-0.2l0.2-0.4l5.9,1.4l-0.1,0.5l-0.6-0.2c-0.7-0.2-1.3-0.1-1.7,0.3c-0.2,0.2-0.4,0.8-0.6,1.7L29,181.6
	l-0.4-0.2L20.5,165L18,175.6c-0.2,1-0.3,1.7-0.1,2c0.2,0.4,0.7,0.7,1.3,0.9l0.6,0.1l-0.1,0.5l-5.9-1.4l0.1-0.5l0.7,0.1
	c0.7,0.2,1.3,0,1.7-0.3c0.2-0.2,0.5-0.9,0.7-1.8l2.8-12c-0.4-0.7-0.6-1.1-0.8-1.4c-0.2-0.2-0.6-0.5-1-0.8c-0.2-0.1-0.6-0.3-1.1-0.4
	L16.9,160.3z M48.7,183.2l-6.1-3.1l-2.3,2c-0.6,0.5-0.9,0.9-1.1,1.2c-0.1,0.2-0.1,0.5,0.1,0.7c0.1,0.3,0.6,0.7,1.3,1.1l-0.2,0.4
	l-5-2.5l0.3-0.4c0.7,0.2,1.2,0.3,1.4,0.2c0.6-0.1,1.5-0.7,2.5-1.6l12-10.1l0.4,0.2l-1.2,15.9c-0.1,1.2,0,2.1,0.2,2.6
	c0.2,0.5,0.6,0.9,1.2,1.3l-0.2,0.4l-6.2-3.2l0.3-0.3c0.6,0.2,1.1,0.3,1.4,0.3c0.3-0.1,0.6-0.3,0.6-0.5c0.2-0.3,0.3-0.9,0.4-1.9
	L48.7,183.2z M48.9,182.2l0.6-7.7l-6,5L48.9,182.2z M64.5,190.5l-3.2,4c-0.7,0.9-1,1.5-1,1.9c0,0.5,0.3,1,0.8,1.4l0.6,0.4l-0.4,0.4
	l-5.9-4.6l0.3-0.4l0.5,0.4c0.6,0.5,1.2,0.6,1.7,0.4c0.3-0.1,0.7-0.6,1.3-1.3l7-9c0.7-0.9,1-1.5,1-1.8c-0.1-0.5-0.3-1-0.9-1.4
	l-0.5-0.4l0.2-0.4l5,4c1.2,1,2.1,1.9,2.7,2.7c0.4,0.8,0.8,1.7,0.8,2.7c0,1-0.4,1.9-1,2.7c-0.9,1.2-2,1.8-3.2,1.9
	c-1.3,0.2-2.6-0.3-4-1.4c-0.3-0.2-0.6-0.6-1-0.9C65.2,191.3,64.9,190.9,64.5,190.5 M65,189.9c0.3,0.4,0.6,0.7,0.8,0.9
	c0.2,0.3,0.5,0.5,0.7,0.6c0.7,0.6,1.5,0.8,2.4,0.6c0.9-0.2,1.7-0.6,2.4-1.5c0.5-0.6,0.8-1.3,1-2c0.2-0.7,0.1-1.4-0.2-2
	c-0.3-0.6-0.6-1.1-1.3-1.6c-0.3-0.3-0.8-0.6-1.5-0.9L65,189.9z M89.3,200.6c-1.5-1.7-3.4-2.8-5.6-3c-2.6-0.2-4.9,0.5-7,2.4
	c-2.1,1.8-3.2,3.9-3.4,6.3c-0.2,2.3,0.5,4.5,2,6.3c1.7,1.8,3.6,2.8,6,2.9c2.4,0.1,4.6-0.7,6.7-2.4c2-1.7,3-3.8,3.2-6.2
	C91.4,204.5,90.8,202.4,89.3,200.6 M88.4,201.1c1.1,1.3,1.6,2.6,1.3,4.1c-0.4,1.9-1.7,3.8-3.9,5.9c-2.1,1.8-4,2.7-5.6,2.7
	c-1.7,0.1-3-0.6-4.1-1.8c-1-1.1-1.4-2.5-1.1-4c0.3-2,1.6-3.9,3.8-5.8c2.1-1.8,4.1-2.8,6-2.8C86.1,199.3,87.4,199.8,88.4,201.1
	 M107.1,228.7l-5.1,3.2l-0.2-0.4c1.4-1.3,2.1-2.6,2.3-3.8c0.3-1.3,0-2.5-0.6-3.7c-0.6-1.1-1.3-1.8-2.3-2.4c-1-0.6-2.2-0.7-3.5-0.7
	c-1.4,0.2-2.9,0.7-4.6,1.6c-1.4,0.8-2.5,1.6-3.3,2.6c-0.8,0.9-1.2,2.1-1.3,3.3c-0.1,1.2,0.2,2.4,0.8,3.6c0.6,1,1.3,1.7,2.1,2.3
	c0.9,0.6,2.2,0.9,3.9,1.2l0,0.5c-1.8,0-3.3-0.4-4.5-1.1c-1.2-0.7-2.2-1.8-2.9-3.2c-1.4-2.6-1.5-5.1-0.3-7.6c0.9-1.8,2.2-3.2,4.1-4.3
	c1.6-0.8,3.2-1.2,4.8-1.2c1.7,0,3.2,0.4,4.5,1.3c1.3,0.9,2.4,2,3.2,3.4c0.6,1.2,0.9,2.4,1,3.8c0,0.4,0,0.7,0.1,0.9
	c0.2,0.2,0.3,0.3,0.5,0.4c0.4,0.2,0.7,0.1,1.1,0L107.1,228.7z M110.7,242.7l-6.7,1.9l1.1,3.7c0.3,0.9,0.6,1.6,1,1.8
	c0.4,0.3,1.2,0.3,2.2,0.1l0.2,0.5l-5.9,1.7l-0.2-0.4c0.8-0.4,1.3-0.6,1.5-0.8c0.2-0.2,0.4-0.6,0.5-1c0.1-0.4,0-0.9-0.2-1.6l-1-3.7
	l-5.6,1.6c-0.8,0.2-1.2,0.4-1.4,0.5c-0.1,0.1-0.2,0.2-0.2,0.5c-0.1,0.2,0,0.5,0.2,0.9l0.8,2.9c0.2,0.9,0.6,1.7,0.8,2
	c0.2,0.4,0.7,0.7,1.1,1c0.7,0.3,1.6,0.7,2.8,0.9l0.1,0.5l-4.6-0.2l-3.8-13.1l0.5-0.1l0.2,0.6c0.1,0.4,0.3,0.8,0.6,1
	c0.2,0.3,0.4,0.4,0.8,0.4c0.3,0,0.8-0.1,1.7-0.4l11-3.2c1-0.3,1.7-0.6,1.8-0.8c0.3-0.4,0.3-1,0.1-1.7l-0.2-0.6l0.5-0.2l3.7,13.1
	l-3.6,1.3l-0.1-0.5c0.9-0.4,1.4-0.8,1.6-1.1c0.3-0.3,0.4-0.7,0.5-1.2c0.1-0.4-0.1-1-0.3-1.8L110.7,242.7z M115.4,259.3l0.4,4.8
	L103.6,276l10.1-0.9c1.1-0.1,1.8-0.3,2-0.5c0.4-0.3,0.5-0.9,0.4-1.6v-0.6l0.4-0.1l0.6,6.1l-0.5,0l-0.1-0.6c0-0.7-0.3-1.3-0.7-1.5
	c-0.3-0.2-0.9-0.2-2-0.1l-14.7,1.3l-0.1-0.5l13.1-12.9l-10.8,1c-1.1,0-1.7,0.2-2,0.5c-0.4,0.3-0.5,0.8-0.4,1.5v0.6l-0.4,0l-0.6-6.1
	l0.5,0l0.1,0.6c0,0.7,0.3,1.3,0.8,1.5c0.3,0.1,0.9,0.2,1.9,0.1l12.1-1.1c0.5-0.6,0.9-1,1.1-1.3c0.2-0.3,0.3-0.8,0.5-1.3
	c0-0.2,0-0.7,0-1.2L115.4,259.3z M115.1,298.2l-6-0.8l0.1-0.4c1.2,0,2.1-0.2,2.8-0.6c0.8-0.3,1.4-0.8,1.9-1.5
	c0.5-0.7,0.8-1.4,0.9-2.2c0.1-0.9-0.1-1.7-0.6-2.3c-0.5-0.7-1.1-1-1.7-1.1c-0.6-0.1-1,0-1.5,0.4c-0.7,0.4-1.7,1.6-3,3.5
	c-1.1,1.6-1.9,2.6-2.5,3.1c-0.5,0.6-1.1,1-1.7,1.1c-0.7,0.3-1.4,0.4-2,0.3c-1.3-0.2-2.4-0.8-3.3-2c-0.7-1.2-1.1-2.6-0.9-4.2
	c0.1-0.5,0.2-1,0.3-1.4c0-0.3,0.3-0.8,0.6-1.6c0.4-0.8,0.6-1.3,0.6-1.6c0-0.2,0-0.4-0.1-0.5c-0.2-0.2-0.4-0.3-0.8-0.4l0-0.5l6,0.8
	l-0.1,0.4c-1.2,0.2-2.2,0.3-2.9,0.6c-0.7,0.2-1.2,0.8-1.7,1.5c-0.5,0.8-0.8,1.6-0.9,2.5c-0.1,1.1,0.1,2,0.5,2.7
	c0.5,0.7,1.1,1.2,1.9,1.2c0.4,0,0.8,0,1.3-0.2c0.5-0.2,0.9-0.5,1.3-0.9c0.3-0.3,0.9-1.1,2-2.5c1.1-1.4,1.8-2.4,2.4-3
	c0.6-0.6,1.2-1,1.8-1.2c0.7-0.2,1.3-0.4,2.1-0.2c1.2,0.1,2.2,0.7,2.9,1.8c0.8,1,1.2,2.3,0.9,3.8c-0.1,0.9-0.5,1.9-1,2.8
	c-0.2,0.5-0.4,0.8-0.4,1c0,0.3,0,0.4,0.2,0.6c0.1,0.2,0.4,0.3,0.8,0.5L115.1,298.2z M93.7,310l-0.5-0.2l2.4-7.2l0.4,0.1l-0.2,0.6
	c-0.2,0.7-0.1,1.3,0.2,1.7c0.2,0.3,0.8,0.6,1.8,0.9l10.8,3.5c0.8,0.2,1.4,0.4,1.7,0.3c0.2,0,0.4-0.1,0.7-0.3c0.3-0.3,0.5-0.6,0.7-1
	l0.2-0.6l0.4,0.2l-2.3,7.2l-0.5-0.2l0.2-0.6c0.2-0.7,0.2-1.2-0.2-1.7c-0.2-0.3-0.8-0.6-1.8-1l-10.7-3.5c-0.9-0.3-1.4-0.4-1.8-0.4
	c-0.2,0-0.5,0.1-0.7,0.3c-0.3,0.3-0.5,0.6-0.7,1.1L93.7,310z M102.6,332.9l0.3-0.4c-0.3-0.2-0.5-0.5-0.6-0.6c0-0.2,0-0.4,0.1-0.6
	c0.1-0.2,0.3-0.4,0.8-0.7c0.9-0.7,1.6-1.5,2-2.4c0.7-1.4,0.8-2.6,0.5-4c-0.4-1.2-1.1-2.2-2.2-2.8c-0.6-0.3-1.3-0.5-2-0.5
	c-0.6,0-1.4,0.2-2.1,0.5c-0.8,0.4-1.8,1-3.2,2c-1.4,0.9-2.3,1.5-2.7,1.7c-0.6,0.3-1.2,0.5-1.7,0.5c-0.5,0-0.9-0.1-1.3-0.3
	c-0.6-0.4-1.2-0.9-1.4-1.8c-0.2-0.9-0.1-1.7,0.4-2.7c0.4-0.9,1-1.5,1.7-2c0.7-0.6,1.4-0.9,2.2-0.9c0.7-0.1,1.7,0.1,2.9,0.5l0.2-0.4
	l-5.3-2.7l-0.3,0.4c0.4,0.3,0.6,0.5,0.6,0.6c0.1,0.2,0,0.4-0.1,0.6c-0.1,0.2-0.5,0.6-1.1,1.3c-0.6,0.6-1,1.1-1.2,1.2
	c-0.3,0.4-0.5,0.8-0.7,1.3c-0.8,1.5-1,2.9-0.6,4.2c0.4,1.4,1.2,2.4,2.4,3c0.6,0.3,1.3,0.5,2,0.5c0.8,0,1.4-0.2,2.1-0.5
	c0.7-0.3,1.8-1,3.3-2.1c1.9-1.3,3.2-2.1,4-2.2c0.5-0.2,1.1-0.1,1.6,0.2c0.6,0.3,1,0.9,1.3,1.6c0.2,0.7,0.1,1.6-0.3,2.4
	c-0.4,0.7-0.9,1.3-1.6,1.8c-0.7,0.4-1.4,0.7-2.2,0.7c-0.8,0.1-1.8-0.1-2.9-0.5l-0.2,0.4L102.6,332.9z"/>
<path class="st1" d="M-83.3,339.8c0.4,0.6,0.6,1.3,0.4,1.9c-0.2,0.7-0.5,1.3-1.1,1.7c-0.6,0.4-1.3,0.6-2,0.5
	c-0.7-0.1-1.3-0.5-1.7-1.1c-0.4-0.6-0.5-1.3-0.4-2c0.2-0.8,0.5-1.3,1.1-1.7c0.6-0.4,1.2-0.6,2-0.5
	C-84.3,338.8-83.7,339.2-83.3,339.8 M-74.7,353.1c0.9,0.6,1.7,0.9,2.4,0.9c0.6,0,1.2-0.2,1.6-0.6c0.4-0.4,0.6-0.9,0.8-1.5
	c0.2-0.6,0.1-1.2-0.1-1.8c-0.2-0.6-0.8-1.4-1.8-2.4l-4-4.4l-0.3,0.3c0.4,0.4,0.6,0.7,0.7,0.9c0.1,0.2,0.1,0.4,0,0.6
	c-0.1,0.2-0.4,0.5-0.9,1l-5.8,5.5c-0.5,0.5-0.9,0.7-1.1,0.8c-0.1,0.1-0.4,0.1-0.6-0.1c-0.2-0.1-0.5-0.3-0.9-0.7l-0.2,0.2l4.3,4.6
	c1.2,1.3,2.4,2,3.6,2.2c1,0.1,1.8-0.2,2.4-0.8c0.7-0.6,1-1.4,0.9-2.3C-73.8,354.9-74.1,354.1-74.7,353.1 M-76.8,350.4l3.6-3.4
	c0.6,0.6,0.9,1.2,1.1,1.6c0.2,0.4,0.2,0.9,0.1,1.2c-0.1,0.4-0.4,0.8-0.8,1.2c-0.4,0.4-0.8,0.6-1.2,0.7c-0.5,0.1-0.9,0.1-1.3-0.2
	C-75.6,351.4-76.2,351-76.8,350.4 M-77.3,350.9c0.7,0.7,1.1,1.3,1.3,1.7c0.2,0.5,0.2,1,0.1,1.5c-0.2,0.6-0.5,1-0.9,1.4
	c-0.3,0.3-0.7,0.6-1.2,0.7c-0.4,0.1-0.9,0.1-1.3,0c-0.5-0.2-0.9-0.5-1.2-0.8c-0.2-0.3-0.3-0.6-0.3-0.7c0.1-0.3,0.2-0.5,0.4-0.7
	l0.4-0.3L-77.3,350.9z M-64.4,365.8l-3.5-2.6l-1.1,0.7c-0.4,0.2-0.7,0.5-0.8,0.7c-0.2,0.3-0.2,0.6-0.1,0.9c0.1,0.2,0.4,0.4,0.9,0.9
	l-0.2,0.3l-3.3-2.5l0.1-0.3c0.4,0.2,0.8,0.3,1.2,0.2c0.4-0.1,1.1-0.3,2-0.9l9.4-5.5l0.1,0.2l-2.3,11c-0.2,1-0.3,1.7-0.2,2.1
	c0,0.3,0.2,0.6,0.5,0.8L-62,372l-4.9-3.6l0.2-0.3l0.2,0.2c0.4,0.3,0.7,0.4,0.9,0.4c0.2,0,0.3,0,0.4-0.2c0.1-0.1,0.1-0.2,0.2-0.3
	c0-0.1,0.1-0.3,0.1-0.7L-64.4,365.8z M-64.3,365l1-4.5l-4,2.4L-64.3,365z M-47,373.1c0.9,0.8,1.5,1.5,1.7,2c0.4,0.9,0.3,1.7-0.1,2.4
	c-0.4,0.8-1.1,1.3-2,1.5c-1.2,0.2-2.6-0.1-4.1-0.9l-5.5-3l0.2-0.3c0.5,0.3,0.8,0.5,1.1,0.5c0.2,0,0.5-0.1,0.6-0.2
	c0.1-0.1,0.4-0.4,0.7-1l3.8-7.1c0.3-0.6,0.5-1,0.5-1.2c0.1-0.2,0-0.4-0.2-0.6c-0.2-0.2-0.5-0.4-0.9-0.6l0.2-0.4l5.3,2.8
	c1.2,0.6,2.1,1.3,2.5,1.8c0.5,0.5,0.7,1.1,0.7,1.7c0.1,0.6-0.1,1.2-0.3,1.6c-0.3,0.6-0.7,0.9-1.3,1.2
	C-45.1,373.4-45.9,373.3-47,373.1 M-49.8,371.3c0.8,0.4,1.4,0.6,1.9,0.6c0.4,0,0.8-0.1,1.1-0.3c0.4-0.2,0.7-0.6,1-1.1
	c0.3-0.5,0.4-0.9,0.3-1.4c0-0.4-0.2-0.8-0.4-1.1c-0.3-0.3-0.9-0.7-1.6-1.1L-49.8,371.3z M-50.1,372l-1.9,3.5l-0.2,0.4
	c-0.1,0.4-0.2,0.6-0.1,0.8c0.1,0.2,0.2,0.4,0.6,0.6c0.4,0.2,0.9,0.3,1.3,0.3c0.5,0,0.9-0.1,1.3-0.4c0.4-0.2,0.7-0.6,0.9-1.1
	c0.3-0.5,0.5-1.1,0.4-1.6c-0.1-0.5-0.2-1-0.5-1.4C-48.8,372.8-49.3,372.4-50.1,372 M-32.9,373.4l-1.7,4.8l0.2,0.1
	c0.8,0.3,1.4,0.3,1.9-0.1c0.5-0.4,0.9-1,1.3-1.9l0.4,0.1l-2.2,6.2l-0.3-0.1c0.1-0.7,0.2-1.3,0.1-1.8c-0.1-0.6-0.2-0.9-0.4-1.2
	c-0.2-0.2-0.6-0.5-1.2-0.6l-1.3,3.2c-0.2,0.7-0.4,1.1-0.3,1.3c0,0.2,0,0.3,0.2,0.5c0.1,0.1,0.3,0.3,0.7,0.4l0.7,0.3
	c1,0.4,2,0.5,2.8,0.2c0.9-0.2,1.6-0.9,2.2-1.8l0.4,0.2l-1.9,3.5l-10.1-3.7l0.1-0.3l0.4,0.1c0.3,0.2,0.6,0.2,0.9,0.2
	c0.2-0.1,0.3-0.2,0.5-0.3c0.1-0.1,0.3-0.5,0.5-1.1l2.8-7.7c0.2-0.6,0.3-0.9,0.3-1c0-0.3,0-0.4-0.1-0.6c-0.2-0.2-0.4-0.5-0.8-0.6
	l-0.4-0.1l0.1-0.3l9.8,3.5l-1.2,3.5l-0.3-0.1c0.1-1,0.1-1.7-0.1-2.1c-0.2-0.5-0.5-0.9-1-1.3c-0.3-0.2-0.9-0.5-1.8-0.8L-32.9,373.4z
	 M-13.7,377.2l-0.8,4.2l-0.3-0.1c0-1-0.2-2-0.8-2.7c-0.6-0.8-1.3-1.2-2.1-1.4c-0.6-0.1-1.1,0-1.5,0.2c-0.4,0.2-0.7,0.6-0.8,1
	c0,0.3,0,0.5,0.1,0.7c0.1,0.3,0.4,0.7,0.7,1c0.3,0.2,0.9,0.7,1.7,1.4c1.3,1,2.1,1.9,2.5,2.6c0.4,0.7,0.5,1.5,0.4,2.3
	c-0.3,1-0.8,1.8-1.7,2.4c-0.9,0.6-2,0.7-3.2,0.5c-0.4-0.1-0.8-0.1-1.1-0.3c-0.3-0.2-0.7-0.4-1.2-0.7c-0.3-0.2-0.5-0.3-0.7-0.4
	c-0.2,0-0.4,0-0.5,0.1c-0.2,0.1-0.4,0.2-0.6,0.5l-0.4,0l0.9-4.7l0.3,0.1c0,1.3,0.3,2.5,1,3.3c0.6,0.8,1.3,1.3,2.2,1.5
	c0.7,0.2,1.2,0.1,1.7-0.2c0.5-0.3,0.8-0.7,0.8-1.2c0.1-0.3,0.1-0.6,0-0.9c-0.1-0.3-0.3-0.6-0.5-0.9c-0.3-0.3-0.8-0.7-1.5-1.3
	c-0.9-0.7-1.7-1.3-2.1-1.8c-0.4-0.5-0.7-1-0.9-1.6c-0.2-0.5-0.2-1-0.1-1.6c0.2-1,0.8-1.7,1.6-2.3c0.8-0.5,1.8-0.7,2.8-0.5
	c0.4,0.1,0.8,0.2,1.1,0.4c0.3,0.1,0.6,0.3,1,0.6c0.3,0.3,0.6,0.4,0.8,0.5c0.2,0.1,0.2,0,0.4-0.1c0.1,0,0.2-0.3,0.4-0.6L-13.7,377.2z
	 M-19.5,389l-1.4,1.3c0.2,0.1,0.5,0.2,0.6,0.3c0.2,0.1,0.2,0.3,0.2,0.5c-0.1,0.3-0.2,0.5-0.5,0.7c-0.2,0.1-0.6,0.1-1.3,0l0,0.5
	c0.9,0.2,1.6,0.2,2.1,0.2c0.3-0.1,0.6-0.2,0.8-0.4c0.2-0.2,0.4-0.5,0.4-0.8c0.1-0.3,0-0.6-0.1-0.9c-0.1-0.2-0.3-0.4-0.7-0.6l0.5-0.6
	L-19.5,389z M-3.2,387.6l-5.4-0.4l0.2-2l5.3,0.5L-3.2,387.6z M9.8,383.9c1.2,0.2,2.1,0.4,2.5,0.7c0.7,0.5,1.1,1.2,1.2,2.1
	c0.1,0.9-0.2,1.8-0.9,2.4c-0.9,0.8-2.1,1.3-3.9,1.5l-6.2,0.5l0-0.3c0.6-0.1,0.9-0.2,1.1-0.3c0.2-0.1,0.3-0.2,0.4-0.5
	c0.1-0.2,0.1-0.6,0-1.3l-0.7-8.1c0-0.7-0.1-1.1-0.2-1.3c0-0.2-0.2-0.3-0.5-0.3c-0.2-0.1-0.6-0.1-1.2-0.1l0-0.3l5.9-0.6
	c1.4-0.1,2.4-0.1,3,0.1c0.6,0.2,1.1,0.6,1.5,1c0.4,0.5,0.6,1,0.7,1.6c0,0.6-0.2,1.2-0.6,1.7C11.6,383.1,10.9,383.5,9.8,383.9
	 M6.5,384c0.9-0.1,1.4-0.2,1.9-0.5c0.3-0.2,0.6-0.6,0.8-0.9c0.2-0.3,0.2-0.8,0.2-1.4c-0.1-0.5-0.2-1-0.5-1.3
	c-0.2-0.3-0.6-0.6-0.9-0.6c-0.4-0.2-1.1-0.2-2-0.1L6.5,384z M6.5,384.7l0.3,4l0.1,0.5c0,0.4,0.2,0.6,0.3,0.7
	c0.2,0.2,0.5,0.2,0.8,0.2c0.5,0,0.9-0.2,1.3-0.4c0.4-0.3,0.7-0.6,0.8-1c0.2-0.4,0.3-0.9,0.3-1.3c-0.1-0.7-0.3-1.2-0.6-1.6
	c-0.3-0.5-0.7-0.7-1.2-0.9C8.2,384.6,7.5,384.6,6.5,384.7 M23.9,375.5c2-0.5,3.6-0.3,5.1,0.6c1.5,0.9,2.4,2.3,2.9,4.1
	c0.3,1.5,0.2,3-0.4,4.4c-0.8,1.8-2.3,3-4.5,3.5c-2.2,0.5-4,0.1-5.6-1.1c-1.2-0.9-2-2.2-2.4-3.9c-0.4-1.8-0.2-3.4,0.8-5
	C20.8,376.9,22.2,375.9,23.9,375.5 M24.2,376.1c-1.1,0.2-1.8,1-2.2,2.2c-0.2,1.1-0.1,2.4,0.2,4.2c0.5,2.1,1.2,3.6,2.2,4.4
	c0.7,0.6,1.5,0.7,2.3,0.6c0.6-0.2,1.1-0.4,1.5-0.8c0.4-0.5,0.7-1.2,0.7-2.1c0.1-0.9,0-2.1-0.3-3.4c-0.4-1.6-0.8-2.8-1.3-3.5
	c-0.5-0.7-1-1.2-1.5-1.4C25.3,376,24.8,376,24.2,376.1 M48,376.1l1.2,4.3L39,384.6l-0.2-0.4l0.4-0.2c0.4-0.1,0.6-0.2,0.7-0.5
	c0.2-0.1,0.2-0.3,0.2-0.5c0-0.1-0.1-0.5-0.4-1.2l-3.1-7.6c-0.2-0.6-0.3-0.9-0.5-1.1c-0.1-0.1-0.3-0.2-0.6-0.2
	c-0.2-0.1-0.5,0-0.8,0.1l-0.4,0.1l-0.1-0.3l6.2-2.5l0.1,0.3l-0.5,0.1c-0.3,0.2-0.5,0.4-0.8,0.6c-0.1,0.1-0.2,0.3-0.2,0.6
	c0,0.1,0.1,0.5,0.4,1.1l3,7.4c0.2,0.6,0.4,0.9,0.5,1.1c0.2,0.2,0.4,0.2,0.6,0.2c0.2,0,0.5-0.1,1.1-0.3l1-0.4
	c0.6-0.2,1.1-0.6,1.4-0.9c0.3-0.4,0.5-0.9,0.6-1.5c0.1-0.6,0.1-1.4,0-2.4L48,376.1z M58.4,360.6l-3.3,2l0.2,0.3
	c0.5-0.2,0.9-0.4,1.2-0.4c0.2,0,0.3,0.1,0.4,0.3c0.2,0.2,0.2,0.9,0.2,1.9l0,4.5l-4-2.4c-0.9-0.6-1.4-0.9-1.4-1.1
	c-0.1-0.1-0.1-0.2,0-0.4c0-0.2,0.1-0.3,0.5-0.5l0.2-0.2l-0.2-0.3l-5.1,3.1l0.1,0.2c0.4-0.2,0.7-0.2,1-0.2c0.3,0,1,0.3,2,1l5.2,3
	l1.3,2.2c0.3,0.6,0.5,0.9,0.5,1c0.1,0.2,0,0.4-0.1,0.6c-0.1,0.2-0.3,0.5-0.6,0.6l-0.5,0.4l0.2,0.2l6-3.6l-0.2-0.3l-0.6,0.3
	c-0.3,0.2-0.5,0.2-0.8,0.2c-0.2,0-0.4,0-0.5-0.1c-0.2-0.1-0.4-0.4-0.7-1l-1.5-2.6l-0.1-5.2c0-1.4,0.1-2.2,0.2-2.6
	c0.1-0.2,0.3-0.5,0.6-0.8L58.4,360.6z M71.7,361.4l-3.4,2.8l0.4,1.3c0.1,0.5,0.3,0.8,0.5,1c0.2,0.3,0.5,0.4,0.8,0.3
	c0.2,0,0.6-0.2,1.1-0.6l0.3,0.2l-3.2,2.6l-0.2-0.2c0.3-0.4,0.4-0.7,0.5-1.2c0.1-0.4,0-1.1-0.3-2.1l-2.8-10.6l0.1-0.1l9.9,5.1
	c0.9,0.5,1.6,0.8,2,0.8c0.2,0,0.5,0,0.9-0.3l0.2,0.3l-4.7,3.8l-0.2-0.2l0.1-0.2c0.4-0.3,0.7-0.6,0.7-0.8c0-0.2,0-0.3-0.2-0.5
	c-0.1,0-0.2-0.2-0.2-0.2c0,0-0.3-0.2-0.6-0.3L71.7,361.4z M71.1,361.1l-4.1-2.2l1.2,4.5L71.1,361.1z M86.3,351.6l-0.2,0.3
	c-0.3,0.2-0.5,0.4-0.7,0.5c-0.2,0-0.4,0-0.6,0c-0.1,0-0.5-0.3-0.9-0.7l-5.9-5.6c-0.5-0.3-0.7-0.6-0.8-0.8c-0.1-0.2-0.2-0.4-0.1-0.6
	c0.1-0.2,0.2-0.5,0.5-0.8l0.3-0.2l-0.2-0.3l-4.4,4.8l0.2,0.2l0.3-0.2c0.3-0.3,0.5-0.4,0.7-0.5c0.2-0.1,0.4-0.1,0.6,0
	c0.2,0.1,0.5,0.3,1,0.7l6,5.6c0.5,0.4,0.7,0.7,0.8,0.9c0,0.2,0.1,0.4,0,0.6c0,0.3-0.2,0.5-0.4,0.8l-0.3,0.3l0.2,0.3l4.5-4.8
	L86.3,351.6z M85.1,339.5c0.4-0.6,1-0.9,1.7-1c0.7-0.2,1.4,0,1.9,0.5c0.6,0.4,1,0.9,1.1,1.7c0.1,0.7-0.1,1.3-0.4,2
	c-0.5,0.6-0.9,0.9-1.7,1c-0.8,0.1-1.3-0.1-1.9-0.5c-0.6-0.4-1-1-1.1-1.7C84.5,340.7,84.7,340.1,85.1,339.5"/>
<path class="st0" d="M0.8,370.2c-51.5,0-93.2-42-93.2-93.9c0-51.8,41.6-93.9,93.2-93.9c51.4,0,93.2,42.1,93.2,93.9
	C94.1,328.3,52.2,370.2,0.8,370.2 M-47.1,349l0.2-0.3c-0.5-0.5-0.8-0.9-0.9-1.4c-0.2-0.4-0.2-1.1-0.2-2.1l0.1-4.2
	c0.9,0.4,1.7,0.6,2.4,0.4c0.7-0.2,1.2-0.5,1.7-1.1c0.4-0.6,0.6-1.2,0.5-1.8c0-0.6-0.2-1.2-0.6-1.8c-0.4-0.5-1-1.1-2-1.8l-3.4-2.6
	l-0.2,0.3l0.4,0.2c0.4,0.3,0.5,0.6,0.6,0.9c0.1,0.3-0.1,0.7-0.6,1.3l-4.6,6.1c-0.3,0.6-0.6,0.9-0.9,1c-0.4,0-0.7,0-1.1-0.3l-0.3-0.2
	l-0.2,0.2l4,3.1l0.2-0.3l-0.4-0.3c-0.4-0.3-0.6-0.5-0.6-0.9c0-0.3,0.2-0.6,0.7-1.3l2-2.7c0,0,0.1,0.1,0.2,0.1c0,0.1,0.2,0.1,0.2,0.2
	c0.1,0.1,0.4,0.3,0.6,0.4l-0.1,6.8L-47.1,349z M-50.2,339.2c0.1,0.1,0.2,0.1,0.2,0.2c0.1,0.1,0.1,0.1,0.2,0.1c0.9,0.7,1.7,1,2.4,1
	c0.7-0.1,1.4-0.4,1.9-1c0.4-0.5,0.6-1.2,0.5-1.8c-0.1-0.6-0.4-1.2-1-1.7c-0.2-0.2-0.6-0.4-1.2-0.7L-50.2,339.2z M-31,344.5
	c-1.4-0.6-2.8-0.7-4.2-0.2c-1.6,0.5-2.8,1.7-3.5,3.3c-0.8,1.7-0.9,3.3-0.3,4.8c0.5,1.5,1.5,2.6,3,3.3c1.5,0.6,3,0.6,4.5,0
	c1.4-0.6,2.6-1.7,3.3-3.3c0.7-1.7,0.8-3.2,0.2-4.7C-28.7,346.2-29.7,345.1-31,344.5 M-31.4,345c-1-0.5-1.9-0.5-2.8,0
	c-1.1,0.6-2,1.7-2.8,3.4c-0.8,1.7-1,3.3-0.7,4.6c0.3,1,0.9,1.7,1.9,2c1,0.5,1.9,0.5,3,0c1-0.5,1.9-1.6,2.7-3.3
	c0.8-1.8,1-3.4,0.7-4.6C-29.8,346.2-30.4,345.4-31.4,345 M-16.9,361.9l0.3,0.1l6.4-8.9l-1.5,7.7c-0.2,0.6-0.3,1-0.5,1.2
	c-0.3,0.2-0.6,0.3-1.1,0.2l-0.4-0.1l-0.1,0.3l4.9,0.9l0-0.3l-0.4,0c-0.5-0.2-0.7-0.3-0.9-0.6c-0.1-0.2-0.1-0.7,0-1.3l1.5-7.5
	c0.1-0.7,0.2-1.1,0.4-1.2c0.3-0.3,0.6-0.3,1.2-0.3l0.4,0.1l0-0.3l-3.2-0.7l-5.8,8.3l-2.4-9.8l-3.3-0.6l-0.1,0.3
	c0.5,0.1,0.8,0.2,1,0.4c0.2,0.2,0.3,0.3,0.3,0.5c0.1,0.3,0.1,0.6-0.1,1.2l-1.4,7.6c-0.2,0.7-0.2,1-0.4,1.2c-0.3,0.3-0.6,0.3-1.1,0.3
	l-0.4-0.1l0,0.3l4,0.8l0-0.3l-0.4-0.1c-0.5-0.1-0.8-0.2-0.9-0.6c-0.1-0.2-0.1-0.6,0-1.3l1.5-7.7L-16.9,361.9z M6.1,359.6l0.8,1.7
	c0.2,0.5,0.4,0.9,0.4,1.2c0,0.2,0,0.3-0.2,0.5c-0.2,0.1-0.5,0.2-1,0.2v0.3l4.6-0.2v-0.3c-0.5,0-0.9-0.2-1.1-0.3
	c-0.3-0.2-0.6-0.8-0.9-1.6l-4.4-9.7H3.9l-3.8,9.8c-0.4,0.9-0.6,1.5-0.9,1.7c-0.1,0.2-0.4,0.3-0.9,0.4v0.3l3.7-0.1v-0.4
	c-0.6,0-1-0.1-1.1-0.2c-0.2-0.1-0.3-0.3-0.3-0.4c0-0.3,0.1-0.6,0.3-1l0.7-1.9L6.1,359.6z M5.8,359l-2.2-4.7l-1.9,4.8L5.8,359z
	 M3.1,348.1l-1.6,2.9h0.3l1.9-2l2.4,1.8h0.2l-1.7-2.8L3.1,348.1z M14.2,350.9l0.1,0.4c0.3-0.1,0.6-0.1,0.7-0.1c0.4,0,0.6,0,0.9,0.1
	c0.2,0.1,0.5,0.2,0.9,0.6l2.1,7.9c0.2,0.6,0.2,1.1,0.2,1.3c-0.2,0.4-0.4,0.6-0.9,0.7l-0.4,0.1l0.1,0.3l3.9-1l0-0.3l-0.4,0.1
	c-0.4,0.1-0.8,0.1-1-0.1c-0.2-0.1-0.4-0.5-0.6-1.2l-1.8-7l9.8,7.2l0.3-0.1l-2.6-9.6c-0.1-0.6-0.2-1.1-0.1-1.3
	c0.1-0.4,0.4-0.6,0.9-0.7l0.4-0.1l-0.2-0.4l-3.9,1.1l0.1,0.3l0.4-0.1c0.4-0.1,0.8-0.1,1.1,0.1c0.2,0.1,0.4,0.6,0.5,1.3l1.7,6.5
	l-9.1-6.7L14.2,350.9z M40.6,353.8l-0.4,0.2c-0.2,0.1-0.5,0.1-0.8,0.1c-0.2,0-0.3-0.1-0.5-0.1c-0.2-0.2-0.3-0.5-0.6-1l-3.2-6.9
	c-0.3-0.6-0.4-1-0.4-1.3c0.1-0.3,0.3-0.6,0.8-0.8l0.4-0.2l-0.1-0.3l-4.6,2.1l0.1,0.3l0.4-0.1c0.3-0.2,0.5-0.2,0.9-0.2
	c0.2,0,0.4,0.1,0.4,0.2c0.2,0.1,0.4,0.5,0.6,1l3.2,6.9c0.3,0.6,0.4,1.1,0.3,1.3c0,0.4-0.3,0.7-0.7,0.8l-0.3,0.2l0.1,0.3l4.6-2.1
	L40.6,353.8z M51.1,342.5l1.5,1c0.6,0.3,0.9,0.5,1,0.8c0.2,0.1,0.2,0.3,0.1,0.5c-0.1,0.2-0.3,0.5-0.7,0.7l0.2,0.2l3.8-2.7l-0.2-0.3
	c-0.3,0.3-0.7,0.3-1.1,0.3c-0.4,0-0.9-0.3-1.6-0.7l-9-5.5l-0.2,0.2l2.3,10.3c0.2,0.9,0.3,1.6,0.2,2c0,0.2-0.2,0.5-0.6,0.8l0.2,0.3
	l3-2.2l-0.2-0.2c-0.5,0.2-0.9,0.4-1.1,0.4c-0.2,0-0.3-0.1-0.5-0.2c-0.1-0.2-0.2-0.5-0.3-1l-0.5-1.9L51.1,342.5z M50.6,342.1
	l-4.4-2.7l1.1,5L50.6,342.1z M-17.4,326.8c0.5,0,0.9,0,0.9,0.8c0,0.7-1.5,6.8-1.7,8.1c-0.3,0.9-0.7,1.2-1.4,1.4H-20h-0.6v0.5
	c0,0.2,0,0.2,0.2,0.2h3.3h3.1c0.2,0,0.5-0.2,0.5-0.5c0-0.2-0.2-0.2-0.9-0.2h-0.7c-0.6-0.2-0.8-0.7-0.8-1.4c0-0.4,0.5-2.4,1.8-7.6
	c0.2-1.3,0.7-1.3,1.5-1.3l0.9-0.3c0.2,0,0.2-0.2,0.2-0.2c0-0.2,0-0.5-0.2-0.5c-0.4,0-2.7,0.2-3.1,0.2c-1.1,0-2.7-0.2-3.6-0.2
	c-0.2,0-0.2,0.2-0.2,0.5c0,0.2,0,0.2,0.5,0.2L-17.4,326.8z M-0.3,328.1l1.1-1.8c0.3-0.2,0.3-0.5,0.3-0.5c0-0.2,0-0.2-0.3-0.2
	c0,0-0.2,0-0.2,0.2l-0.5,0.5c-0.2,0.2-0.4,0.2-0.6,0.2c-0.7,0-4.9-0.5-4.9-0.5c-0.5,0-0.7,0.5-0.9,0.9c0,0.3-2,4.3-2,4.7
	c0,0.2,0,0.2,0.5,0.5c2,1.5,3.5,2.9,3.5,5.4c0,3.1-3.1,5.1-6,6.1c-0.3,0-0.5,0.2-0.5,0.2v0.2c0,0.3,0.2,0.3,0.5,0.3
	c2.7,0,8.2-3,8.2-7.7c0-2.7-1.8-4-3-4.9c-1.1-0.9-1.7-1.5-1.7-2c0-0.2,0.4-1.8,1.1-1.8c0.5,0,4.4,0.7,4.9,0.7
	C-0.5,328.6-0.3,328.3-0.3,328.1 M7.3,328.8c-2.2,1.3-4.9,2.6-4.9,5.6c0,0.7,0.4,3.3,3.8,3.3c2.9,0,5.1-2.5,5.1-5.1
	c0-2-0.9-2.9-1.8-4.5c2.4-1.8,4.3-2.9,4.3-5.3c0-2.3-1.9-3.4-3.5-3.4c-2.5,0-5,1.8-5,5C5.3,325.9,6.2,327.2,7.3,328.8 M6.2,337.3
	c2.2,0,3.1-2.4,3.1-3.8c0-1.6-1.3-3.6-1.8-4.3C6,330.3,4,331.9,4,334.6C4,335.9,4.8,337.3,6.2,337.3 M9.1,327.6
	c0.7-0.4,3.2-2,3.2-5.1c0-1.3-0.9-2.4-2.3-2.4c-1.8,0-2.8,1.1-2.8,2.9C7.1,324.5,8.2,326.1,9.1,327.6 M18,326.8c0.5,0,1.2,0,1.2,0.8
	c0,0.7-1.6,6.8-2,8.1c-0.2,0.9-0.5,1.2-1.3,1.4h-0.4h-0.7v0.5c0,0.2,0,0.2,0.3,0.2h3.3h3.1c0.2,0,0.4-0.2,0.4-0.5
	c0-0.2-0.2-0.2-0.9-0.2h-0.7c-0.6-0.2-0.9-0.7-0.9-1.4c0-0.4,0.4-2.4,1.8-7.6c0.5-1.3,0.7-1.3,1.8-1.3l0.6-0.3
	c0.2,0,0.2-0.2,0.2-0.2c0-0.2,0-0.5-0.2-0.5c-0.4,0-2.6,0.2-3.1,0.2c-1.1,0-2.7-0.2-3.6-0.2c-0.2,0-0.2,0.2-0.2,0.5
	c0,0.2,0.2,0.2,0.5,0.2L18,326.8z M-25.6,202.8h-1.6v3.2l-3.6,0.4v-3.2c-0.9,0.3-2.9,0.7-2.9,0.7c0,0.5-0.2,6.7-0.2,6.7l1.7,2.3
	l-0.8,12.8c0,0-0.9,1.6-1.1,1.8c0,0.2-0.2,4.5-0.2,5.2h9.1v-5.4l-0.6-1.6v-15.9c0,0,1.8,2.2,2,2.4c1.8,0.2,4.2,0.9,4.2,0.9
	c0.2,0,0.2,0,0.2-0.3l2-2.3c0,0-0.2-6.2-0.2-6.7c0,0-2-0.4-2.9-0.7v3.2l-3.4-0.4v-3.2H-25.6z M-21.4,215.6l-1.6-0.3v5.8l0.9,0.2
	l0.7,0.2V215.6z M-30.1,215.6v6l0.7-0.2l0.6-0.2c0,0,0.3-4.5,0.3-5.8L-30.1,215.6z M-4.4,211.9v7.2l0.9-0.2l0.8-0.3v-7.1L-4.4,211.9
	z M23.1,215.6v6l0.6-0.2l0.9-0.2v-5.8L23.1,215.6z M0.8,196.9h-2v3.8l-3.9,0.5v-3.8c-1.6,0.4-3.3,0.9-3.3,0.9c0,0.5-0.5,7.9-0.5,7.9
	l2,2.4l-0.9,15.3c0,0-1.2,1.8-1.3,2c0,0.2-0.2,6.1-0.2,6.7c5.8,0,9.3,2.4,10.6,3.5v-10.2c0-0.3-0.9-2-0.9-2v-18.7c0,0,2.2,2.7,2.5,3
	c1.8,0.2,3.8,0.7,4.9,0.9c0.2,0,0.2,0,0.4-0.2l2.2-2.7c0,0-0.2-7.4-0.2-7.9c-0.3,0-2.7-0.7-3.6-0.9v3.8l-3.8-0.5v-3.8H0.8z
	 M5.5,211.9L4,211.5v7.1l0.9,0.3l1,0.2C5.8,219.1,5.8,213.5,5.5,211.9 M31.8,215.6l-1.6-0.3c0.2,1.3,0.2,5.8,0.2,5.8l0.6,0.2
	l0.9,0.2C32,221.6,31.8,216.9,31.8,215.6 M27.7,202.8H26v3.2l-3.5,0.4v-3.2c-1.3,0.3-2.7,0.7-2.9,0.7v6.7l1.6,2.3l-0.6,12.8
	c0,0-1.1,1.6-1.3,1.8c0,0.2,0,4.5-0.2,5.2h9.4c0-0.7-0.3-5.2-0.3-5.4l-0.7-1.6v-15.9c0,0,2,2.2,2.3,2.4c1.5,0.2,3.9,0.9,3.9,0.9
	c0.2,0,0.2,0,0.5-0.3l2-2.3c0,0-0.2-6.2-0.2-6.7c0,0-1.6-0.4-2.9-0.7v3.2l-3.5-0.4v-3.2H27.7z M58.7,244.2v65.9H-57v-65.9h-3.4v69.3
	h48.7c0.4-0.9,1.3-1.6,2.2-1.6c1.1,0,2,0.7,2.4,1.6H8.6c0.3-0.9,1.1-1.6,2.3-1.6c1,0,2,0.7,2.4,1.6h48.7v-69.3H58.7z M54,241.1v64.6
	H13.5c-6.9,0-11.8,0.9-12.7,1.1C0,306.6-5,305.7-12,305.7h-40.5v-64.6h-1.4v66.2H-12c7.6,0,12.7,0.8,12.7,0.8h0.2h0.3
	c0,0,5.1-0.8,12.4-0.8h42v-66.2H54z M49.8,240v61.2H13.5c-6.7,0-11.6,1.9-12.7,2.2c-1.3-0.4-6-2.2-12.9-2.2h-36.1V240h-1.5v62.8H-12
	c7.6,0,12.4,2,12.7,2l0.2,0.2l0.3-0.2c0,0,5.1-2,12.4-2h37.6V240H49.8z M46,237.7H13.5c-6.4,0-11.1,3.8-12.7,5.2
	c-1.5-1.4-6.2-5.2-12.9-5.2h-33.1v60.5H-12c7.4,0,12.4,3.2,12.4,3.2l0.4,0.4l0.5-0.4c0,0,4.9-3.2,12.2-3.2H47v-60.5H46z M65.1,340.9
	c17.2-17.3,26.5-40.1,26.5-64.6c0-24.4-9.3-47.5-26.5-64.8c-17.2-17.3-40-26.7-64.3-26.7c-24.2,0-47,9.4-64.1,26.7
	c-17.1,17.3-26.7,40.4-26.7,64.8c0,24.4,9.6,47.3,26.7,64.6c17.1,17.3,39.9,26.9,64.1,26.9C25.1,367.8,48,358.1,65.1,340.9
	 M0.8,371.2c51.8,0,94.1-42.4,94.1-94.9c0-52.3-42.3-94.8-94.1-94.8c-52,0-94,42.5-94,94.8C-93.2,328.8-51.2,371.2,0.8,371.2"/>
<path class="st0" d="M40.9,288.9l0.5,1.1h-1.7l0.4-1.1v-9.2h-0.9l-0.7,1.3v-2.2h4v2.2l-0.7-1.3h-0.9V288.9z M37.8,290h-3.6l0.4-1.1
	v-9l-0.4-1.1h3.6v2.2l-0.6-1.3h-1.6v3.8h1.2l0.4-0.9v3l-0.4-1.2h-1.2v4.7h1.6l0.6-1.3V290z M28.7,290l0.7-1.1v-9l-0.7-1.1h2.4
	c0.2,0,0.7,0.2,0.9,0.7c0.2,0.2,0.4,0.7,0.6,1.1c0.2,0.4,0.4,1,0.4,1.7c0.2,0.7,0.2,1.4,0.2,2s0,1.3-0.2,2c0,0.7-0.2,1.3-0.4,1.8
	c-0.2,0.4-0.5,0.9-0.6,1.3c-0.2,0.2-0.7,0.5-0.9,0.5H28.7z M30,289.1h0.9c0.2,0,0.5-0.2,0.7-0.5c0.2-0.4,0.2-0.6,0.4-1.1
	c0-0.4,0.2-0.9,0.2-1.6c0-0.4,0.2-1.2,0.2-1.6c0-0.4-0.2-1.1-0.2-1.6c0-0.7-0.2-1.2-0.2-1.6c-0.2-0.4-0.2-0.6-0.4-1.1
	c-0.2-0.2-0.5-0.5-0.7-0.5H30V289.1z M24.2,288.9l0.5,1.1h-1.4l0.5-1.1v-9l-0.5-1.1h1.4l2.2,7.4v-6.3l-0.4-1.1h1.3l-0.4,1.1v11
	l-3.1-9.8V288.9z M22.4,290h-3.5l0.5-1.1v-9l-0.5-1.1h3.5v2.2l-0.7-1.3h-1.6v3.8h1.1l0.4-0.9v3l-0.4-1.2h-1.1v4.7h1.6l0.7-1.3V290z
	 M18.2,287.7v2.2h-3.3l0.5-1.1v-9l-0.5-1.1h1.7l-0.5,1.1v9.2h1.4L18.2,287.7z M10.3,290l0.7-1.1v-9l-0.7-1.1h2.2
	c0.2,0,0.5,0.2,0.7,0.2c0.2,0.2,0.4,0.5,0.7,0.7c0.2,0.2,0.4,0.7,0.4,1.1c0.3,0.2,0.3,0.7,0.3,1.4c0,0.4,0,0.9-0.3,1.3
	c0,0.2-0.2,0.6-0.4,0.9c-0.3,0.2-0.5,0.4-0.7,0.7c-0.2,0-0.5,0.2-0.7,0.2h-0.9v3.6l0.4,1.1H10.3z M12.4,284.4c0,0,0.2-0.3,0.5-0.3
	c0-0.2,0.2-0.2,0.2-0.4c0.2-0.2,0.2-0.4,0.2-0.7c0.2-0.5,0.2-0.7,0.2-0.9c0-0.5,0-0.7-0.2-0.9c0-0.4,0-0.6-0.2-0.9
	c0-0.2-0.2-0.2-0.2-0.5c-0.2,0-0.5-0.2-0.5-0.2h-0.9v4.7H12.4z M9.1,284.8c0,0,0,0.3,0.2,0.3v0.6c0.2,0.3,0.2,0.5,0.2,1
	s-0.2,0.9-0.2,1.4c0,0.2-0.2,0.6-0.2,0.9c-0.2,0.4-0.4,0.6-0.7,0.9C8.2,290,8,290,7.8,290H7.3l-1.1-0.5l0.5-2l0.6,1.6
	c0.2,0.2,0.2,0.2,0.5,0.2c0.2,0,0.2,0,0.4-0.2c0.2-0.2,0.2-0.2,0.2-0.5c0.2-0.2,0.2-0.4,0.2-0.6v-0.7v-0.6c0-0.5-0.2-0.7-0.4-1
	l-1.1-1.6c-0.3-0.2-0.5-0.4-0.7-0.8c0-0.5-0.2-1-0.2-1.7c0-0.4,0.2-0.9,0.2-1.3c0-0.2,0.3-0.7,0.5-0.9c0-0.3,0.3-0.5,0.5-0.5
	c0.2-0.2,0.5-0.2,0.5-0.2H8c0.2,0,0.2,0,0.2,0.2l1.1,0.2l-0.4,2l-0.7-1.5H8H7.5c-0.2,0.2-0.2,0.2-0.2,0.5c-0.2,0.2-0.2,0.2-0.2,0.5
	v0.6v0.7c0.2,0.4,0.2,0.6,0.4,1.1l1.4,1.6C8.9,284.6,9.1,284.6,9.1,284.8 M1.7,284.8c0,0,0,0.3,0.2,0.3v0.6c0.2,0.3,0.2,0.5,0.2,1
	S2,287.5,2,288c0,0.2-0.2,0.6-0.2,0.9c-0.2,0.4-0.4,0.6-0.6,0.9C0.8,290,0.6,290,0.4,290H0l-1.2-0.5l0.5-2l0.7,1.6
	c0.2,0.2,0.2,0.2,0.4,0.2c0.2,0,0.2,0,0.4-0.2c0.3-0.2,0.3-0.2,0.3-0.5c0.2-0.2,0.2-0.4,0.2-0.6v-0.7v-0.6c-0.2-0.5-0.2-0.7-0.5-1
	l-1.1-1.6c-0.2-0.2-0.4-0.4-0.6-0.8c0-0.5-0.3-1-0.3-1.7c0-0.4,0.3-0.9,0.3-1.3c0-0.2,0.2-0.7,0.4-0.9c0-0.3,0.2-0.5,0.5-0.5
	c0.2-0.2,0.2-0.2,0.4-0.2h0.2c0.2,0,0.2,0,0.2,0.2l1.1,0.2l-0.5,2l-0.7-1.5H0.6H0.2C0,279.9,0,279.9,0,280.1
	c-0.2,0.2-0.2,0.2-0.2,0.5v0.6v0.7c0.2,0.4,0.2,0.6,0.4,1.1l1.3,1.6C1.5,284.6,1.7,284.6,1.7,284.8 M-5,290
	c-0.2-0.2-0.4-0.5-0.6-0.6c0-0.4-0.2-0.7-0.2-1.1c-0.2-0.5-0.2-0.7-0.2-1.4v-6.9l-0.4-1.1h1.8l-0.5,1.1v6.9v0.9
	c0,0.5,0.2,0.7,0.2,0.7c0.3,0.2,0.3,0.5,0.5,0.6h0.4h0.5c0-0.2,0.2-0.5,0.2-0.6c0.2,0,0.2-0.2,0.2-0.7c0.2-0.2,0.2-0.5,0.2-0.9v-6.9
	l-0.5-1.1H-2l-0.5,1.1v6.9v1.4c-0.2,0.4-0.4,0.7-0.4,1.1c-0.2,0.2-0.5,0.4-0.6,0.6c-0.3,0-0.5,0.2-0.7,0.2C-4.4,290.2-4.6,290-5,290
	 M-11.3,290l0.4-1.1v-9l-0.4-1.1h2c0.2,0,0.2,0.2,0.4,0.2c0.2,0.2,0.5,0.2,0.7,0.5c0.2,0.2,0.5,0.7,0.5,1.1c0,0.2,0.2,0.6,0.2,1.3
	c0,0.2,0,0.4-0.2,0.6c0,0.2,0,0.5-0.2,0.7c0,0.2,0,0.4-0.2,0.4c0,0.2-0.2,0.4-0.4,0.4c0.2,0,0.4,0.3,0.7,0.5c0,0.2,0.2,0.4,0.2,0.6
	c0.2,0.3,0.2,0.4,0.2,0.9c0.2,0.2,0.2,0.5,0.2,0.9c0,0.4,0,0.9-0.2,1.3c0,0.5-0.2,0.6-0.5,0.9c-0.2,0.2-0.4,0.4-0.7,0.4
	s-0.4,0.2-0.6,0.2H-11.3z M-10.1,279.7v4.3h0.7c0.2,0,0.4-0.2,0.4-0.6c0.2-0.2,0.5-1,0.5-1.4c0-0.3,0-0.7-0.2-0.9v-0.7
	c-0.2-0.2-0.2-0.2-0.4-0.5l-0.2-0.2H-10.1z M-9.4,289.1c0.4,0,0.6-0.2,0.9-0.6c0-0.2,0.2-0.7,0.2-1.3v-0.9c-0.2-0.2-0.2-0.5-0.2-0.6
	c-0.2-0.3-0.2-0.5-0.5-0.5c0-0.3-0.2-0.3-0.4-0.3h-0.7v4.3H-9.4z M-14.1,278.8h1.8l-0.5,1.1v9l0.5,1.1h-1.8l0.5-1.1v-9L-14.1,278.8z
	 M-16.5,288.9l0.5,1.1h-1.8l0.4-1.1v-9.2h-0.8L-19,281v-2.2h4v2.2l-0.6-1.3h-0.9V288.9z M-22.3,290c-0.2-0.2-0.4-0.5-0.6-0.6
	c-0.2-0.4-0.2-0.7-0.4-1.1v-1.4v-6.9l-0.5-1.1h1.6l-0.4,1.1v6.9c0,0.5,0.2,0.7,0.2,0.9c0,0.5,0,0.7,0.2,0.7c0,0.2,0.2,0.5,0.5,0.6
	h0.4h0.2c0.2-0.2,0.6-0.5,0.6-0.6c0.2,0,0.2-0.2,0.2-0.7c0-0.2,0.2-0.5,0.2-0.9v-6.9l-0.6-1.1h1.6l-0.4,1.1v6.9c0,0.7,0,0.9-0.2,1.4
	c0,0.4-0.3,0.7-0.5,1.1c0,0.2-0.2,0.4-0.5,0.6c-0.2,0-0.4,0.2-0.7,0.2C-21.8,290.2-22,290-22.3,290 M-25.8,288.9l0.5,1.1h-1.8
	l0.4-1.1v-9.2h-0.9l-0.7,1.3v-2.2h4v2.2l-0.7-1.3h-0.8V288.9z M-29.2,288.9l0.4,1.1h-1.1l-1.3-5.2h-0.7v4.1l0.5,1.1h-1.8l0.5-1.1v-9
	l-0.5-1.1h1.8c0.3,0,0.6,0.2,0.8,0.2c0.2,0.2,0.2,0.5,0.5,0.7c0.2,0.2,0.5,0.7,0.5,0.9c0.2,0.4,0.2,0.9,0.2,1.3c0,0.6,0,1.1-0.2,1.5
	c-0.2,0.5-0.5,0.9-0.9,1.2L-29.2,288.9z M-31.9,279.7v4.3h0.7c0,0,0.2,0,0.2-0.2c0.3,0,0.3-0.2,0.5-0.4v-0.7
	c0.2-0.2,0.2-0.4,0.2-0.6c0-0.3,0-0.5-0.2-0.9v-0.7c-0.2-0.2-0.2-0.2-0.5-0.5l-0.2-0.2H-31.9z M-35.8,278.8h1.8l-0.5,1.1v9l0.5,1.1
	h-1.8l0.4-1.1v-9L-35.8,278.8z M-39.2,278.8l-0.5,1.1l1.1,7.2l1.1-7.2l-0.5-1.1h1.4l-0.5,1.1l-1.6,10.1H-39l-1.5-10.1l-0.5-1.1
	H-39.2z M35.6,273.4h-3.4l0.5-1.2v-8.9l-0.5-1.1h3.4v2.3l-0.7-1.4h-1.3v3.9h0.9l0.4-0.9v2.7l-0.4-0.9h-0.9v4.7h1.3l0.7-1.3V273.4z
	 M27.7,272.2l0.5,1.2h-1.6l0.5-1.2l1.7-10.1h0.5l1.7,10.1l0.5,1.2h-1.8l0.5-1.2l-0.5-2H28L27.7,272.2z M28.9,264.9l-0.6,4.5h1.5
	L28.9,264.9z M22.4,273.4l0.5-1.2v-8.9l-0.5-1.1h2c0.2,0,0.5,0.2,0.7,0.2c0.2,0.2,0.5,0.4,0.6,0.7c0.2,0.2,0.5,0.7,0.5,0.9
	c0.2,0.5,0.2,0.9,0.2,1.6c0,0.4,0,0.9-0.2,1.3c0,0.2-0.2,0.7-0.5,0.9c-0.2,0.2-0.4,0.4-0.6,0.7c-0.2,0-0.5,0.2-0.7,0.2h-0.9v3.6
	l0.4,1.2H22.4z M24.4,267.8c0,0,0.2-0.2,0.5-0.2c0-0.3,0.2-0.3,0.2-0.5c0.2-0.2,0.2-0.5,0.2-0.9c0.2-0.3,0.2-0.5,0.2-0.7
	c0-0.5,0-0.7-0.2-0.9c0-0.5,0-0.7-0.2-0.9c0-0.2-0.2-0.2-0.2-0.4c-0.2,0-0.5-0.2-0.5-0.2h-0.9v4.7H24.4z M18,272.9
	c-0.2-0.2-0.4-0.7-0.6-1.1c-0.2-0.7-0.5-1.3-0.5-2c-0.2-0.7-0.2-1.3-0.2-2c0-0.7,0-1.4,0.2-2c0-0.9,0.2-1.3,0.5-2
	c0.2-0.4,0.5-0.9,0.6-1.1c0.5-0.5,0.7-0.7,1.2-0.7c0.2,0,0.6,0.2,0.9,0.7c0.2,0.2,0.5,0.7,0.6,1.1c0.2,0.7,0.5,1.4,0.7,2v2v2
	c-0.2,0.7-0.4,1.3-0.7,2c-0.2,0.5-0.5,0.9-0.6,1.1c-0.2,0.5-0.7,0.6-0.9,0.6C18.7,273.6,18.4,273.4,18,272.9 M18.4,263.3
	c-0.2,0.4-0.2,0.7-0.5,1.1c0,0.7-0.2,1.1-0.2,1.5v1.8v1.6c0,0.6,0.2,1.1,0.2,1.5c0.2,0.7,0.2,0.9,0.5,1.3c0.2,0.2,0.5,0.5,0.7,0.5
	c0.2,0,0.4-0.3,0.6-0.5c0-0.5,0.2-0.6,0.2-1.3c0.2-0.5,0.2-0.9,0.2-1.5c0.3-0.5,0.3-1.2,0.3-1.6c0-0.7,0-1.2-0.3-1.8
	c0-0.4,0-0.9-0.2-1.5c0-0.5-0.2-0.7-0.2-1.1c-0.2-0.2-0.4-0.5-0.6-0.5C18.9,262.8,18.7,263.1,18.4,263.3 M15.8,272.2l0.4,1.2h-1.3
	l-1.1-5.2h-0.7v4l0.4,1.2h-1.8l0.5-1.2v-8.9l-0.5-1.1h1.8c0.3,0,0.4,0.2,0.7,0.2c0.3,0.2,0.4,0.4,0.7,0.7c0.2,0.2,0.5,0.7,0.5,0.9
	c0.2,0.5,0.2,0.9,0.2,1.3c0,0.4-0.2,1.1-0.2,1.6c-0.3,0.4-0.5,0.9-0.9,1.1L15.8,272.2z M13.1,263.1v4.2h0.4c0.3,0,0.4,0,0.4-0.2
	c0.2,0,0.2-0.2,0.2-0.5c0.3-0.2,0.3-0.4,0.3-0.7c0.2-0.2,0.2-0.4,0.2-0.6c0-0.2,0-0.7-0.2-0.9c0-0.2,0-0.5-0.3-0.7
	c0-0.2,0-0.2-0.2-0.4c0,0-0.2-0.2-0.4-0.2H13.1z M8,273.4c-0.2-0.2-0.4-0.5-0.7-0.7c-0.2-0.5-0.2-0.7-0.5-1.1v-1.3v-7l-0.5-1.1h1.8
	l-0.7,1.1v7c0,0.4,0.2,0.6,0.2,0.9c0,0.2,0.2,0.5,0.2,0.7c0,0.2,0.2,0.5,0.4,0.5c0,0.2,0.2,0.2,0.5,0.2c0,0,0.2,0,0.4-0.2
	c0,0,0.2-0.2,0.2-0.5c0.2-0.2,0.2-0.4,0.2-0.7c0.2-0.2,0.2-0.4,0.2-0.9v-7l-0.4-1.1h1.4l-0.5,1.1v7c0,0.4,0,0.9-0.2,1.3
	c0,0.4-0.3,0.6-0.3,1.1c-0.2,0.2-0.4,0.4-0.6,0.7c-0.2,0-0.4,0.2-0.7,0.2C8.4,273.6,8.2,273.4,8,273.4 M5.5,273.4H2l0.5-1.2v-8.9
	L2,262.2h3.5v2.3l-0.6-1.4H3.3v3.9h1.1l0.4-0.9v2.7l-0.4-0.9H3.3v4.7h1.5l0.6-1.3V273.4z M-6.5,273.4h-1.3l0.4-1.2v-8.9l-0.4-1.1
	h1.3l1.5,5.4l1.4-5.4h1.3l-0.5,1.1v8.9l0.5,1.2h-1.8l0.5-1.2v-8l-1.6,6.1l-1.8-6.1v8L-6.5,273.4z M-11.8,273.4
	c-0.2-0.2-0.4-0.5-0.4-0.7c-0.2-0.5-0.5-0.7-0.5-1.1c0-0.5-0.2-0.9-0.2-1.3v-7l-0.5-1.1h1.8l-0.4,1.1v7v0.9c0.2,0.2,0.2,0.5,0.4,0.7
	c0,0.2,0.3,0.5,0.3,0.5c0.2,0.2,0.2,0.2,0.4,0.2c0.2,0,0.2,0,0.4-0.2c0.3,0,0.3-0.2,0.5-0.5c0-0.2,0.2-0.4,0.2-0.7v-0.9v-7l-0.4-1.1
	h1.5l-0.4,1.1v7c0,0.4-0.2,0.9-0.2,1.3c-0.2,0.4-0.2,0.6-0.5,1.1c-0.2,0.2-0.4,0.4-0.7,0.7c0,0-0.2,0.2-0.6,0.2
	C-11.3,273.6-11.6,273.4-11.8,273.4 M-17.8,265.6c0.2-0.7,0.4-1.1,0.4-1.8c0.2-0.4,0.5-0.9,0.9-1.1c0.2-0.5,0.5-0.5,0.9-0.5h0.4
	c0.2,0,0.5,0,0.5,0.2c0.2,0,0.2,0,0.2,0.2c0.3,0,0.3,0,0.3,0.2v2.3l-0.7-1.6c-0.2-0.4-0.4-0.4-0.6-0.4c-0.2,0-0.5,0-0.7,0.4
	c-0.2,0.2-0.2,0.7-0.5,1.2c0,0.4-0.2,0.9-0.2,1.6v1.6v1.6c0.2,0.6,0.2,1.1,0.2,1.5c0.2,0.5,0.2,0.9,0.5,1.1c0.2,0.4,0.5,0.4,0.7,0.4
	c0.2,0,0.4-0.2,0.6-0.4l0.7-1.6v2.3c0,0.2-0.3,0.4-0.5,0.4c-0.2,0.2-0.5,0.2-0.8,0.2c-0.5,0-0.7,0-0.9-0.5c-0.4-0.2-0.7-0.7-0.9-1.3
	c-0.2-0.5-0.2-1.1-0.4-1.8c0-0.7-0.2-1.3-0.2-2C-18,267.1-17.8,266.4-17.8,265.6 M-22.4,272.2l0.4,1.2h-1.3l0.4-1.2l1.7-10.1h0.6
	l1.7,10.1l0.5,1.2h-1.8l0.5-1.2l-0.5-2H-22L-22.4,272.2z M-21.2,264.9l-0.6,4.5h1.3L-21.2,264.9z M-27.6,272.2l0.5,1.2h-1.3l0.4-1.2
	v-8.9l-0.4-1.1h1.3l2.2,7.4v-6.3l-0.4-1.1h1.5l-0.4,1.1v11l-3.3-9.8V272.2z M-32.3,273.4c-0.2-0.2-0.4-0.5-0.6-0.7
	c-0.3-0.5-0.3-0.7-0.5-1.1v-1.3v-7l-0.6-1.1h1.8l-0.4,1.1v7c0,0.4,0,0.6,0.2,0.9c0,0.2,0,0.5,0.2,0.7c0,0.2,0.2,0.5,0.2,0.5
	c0.2,0.2,0.5,0.2,0.5,0.2c0.3,0,0.5,0,0.5-0.2c0.2,0,0.4-0.2,0.4-0.5c0-0.2,0.2-0.4,0.2-0.7v-0.9v-7l-0.5-1.1h1.7l-0.5,1.1v7
	c0,0.4,0,0.9-0.2,1.3c0,0.4-0.2,0.6-0.5,1.1c0,0.2-0.2,0.4-0.5,0.7c-0.2,0-0.3,0.2-0.6,0.2C-31.9,273.6-32.1,273.4-32.3,273.4
	 M31.6,255.7l0.4,0.9h-1.6l0.4-0.9l1.8-10.1h0.4l1.7,10.1l0.5,0.9h-1.8l0.5-0.9l-0.5-2h-1.7L31.6,255.7z M32.7,248.3l-0.6,4.4h1.5
	L32.7,248.3z M30,255.7l-1.3-4.5c0.2,0,0.7-0.4,0.7-0.9c0.2-0.4,0.4-1.1,0.4-1.5c0-0.4-0.2-0.9-0.2-1.4c-0.2-0.4-0.2-0.7-0.5-0.9
	c-0.2-0.2-0.5-0.5-0.7-0.7c-0.2,0-0.4-0.2-0.7-0.2H26l0.5,1.1v9l-0.5,0.9h1.8l-0.4-0.9v-4h0.4l1.4,4.9h1.3L30,255.7z M27.3,246.5
	h0.4c0.2,0,0.2,0.2,0.5,0.2c0,0.2,0.2,0.2,0.2,0.5c0.2,0.2,0.2,0.4,0.2,0.6v0.9v0.6c0,0.2,0,0.5-0.2,0.7c0,0.2-0.2,0.5-0.2,0.5
	c-0.3,0.2-0.3,0.2-0.5,0.2h-0.4V246.5z M23.5,255.7l0.4,0.9h-1.7l0.4-0.9v-9.2h-0.9l-0.4,1.3v-2.2h3.8v2.2l-0.7-1.3h-0.9V255.7z
	 M20,251.4c0,0.2,0.2,0.2,0.2,0.4c0,0.2,0,0.4,0.3,0.7v0.9v1.2c-0.3,0.4-0.3,0.9-0.5,1.1c-0.2,0.4-0.2,0.6-0.5,0.9
	c-0.2,0.2-0.7,0.2-0.9,0.2h-0.5l-1.1-0.4l0.7-2l0.4,1.5c0.2,0,0.5,0.2,0.5,0.2c0.2,0,0.5-0.2,0.5-0.2c0.2-0.2,0.2-0.4,0.4-0.4v-0.7
	c0-0.2,0.2-0.4,0.2-0.7c0-0.2-0.2-0.4-0.2-0.9c0-0.2-0.2-0.4-0.2-0.7L18,251c-0.2-0.2-0.4-0.7-0.4-1.1c-0.2-0.5-0.2-0.9-0.2-1.3
	v-1.3c0.2-0.2,0.2-0.7,0.5-0.9c0.2-0.3,0.2-0.5,0.4-0.5c0.2-0.2,0.5-0.2,0.7-0.2h0.2h0.2l1.1,0.4l-0.7,1.8l-0.4-1.3h-0.2h-0.2h-0.5
	c0,0.2-0.2,0.2-0.2,0.4c0,0,0,0.2-0.2,0.4v0.5c0,0.5,0,0.7,0.2,0.9c0,0.5,0.2,0.6,0.5,0.9L20,251.4z M12.9,256.3
	c-0.2-0.2-0.5-0.6-0.6-1.3c-0.3-0.4-0.3-1.1-0.5-1.8c0-0.7-0.2-1.3-0.2-2c0-0.7,0.2-1.6,0.2-2.2c0.2-0.6,0.2-1.2,0.5-1.8
	c0.2-0.5,0.4-0.9,0.6-1.3c0.5-0.2,0.6-0.5,1.1-0.5c0.5,0,0.6,0.2,0.9,0.5c0.5,0.5,0.6,0.9,0.9,1.3c0,0.6,0.2,1.2,0.4,1.8v2.2v2
	c-0.2,0.7-0.4,1.4-0.4,1.8c-0.2,0.7-0.4,1.1-0.9,1.3c-0.3,0.4-0.4,0.7-0.9,0.7C13.5,256.8,13.3,256.8,12.9,256.3 M13.3,246.7
	c-0.2,0.5-0.2,0.7-0.5,1.1c0,0.5-0.2,1.2-0.2,1.6v1.8v1.6c0,0.6,0.2,1.2,0.2,1.6c0.2,0.4,0.2,0.9,0.5,1.1c0.2,0.4,0.5,0.4,0.6,0.4
	c0.2,0,0.5,0,0.6-0.4c0.3-0.2,0.3-0.7,0.5-1.1c0-0.5,0-1,0.3-1.6v-1.6v-1.8c-0.3-0.4-0.3-1-0.3-1.6c-0.2-0.5-0.2-0.6-0.5-1.1
	c-0.2-0.2-0.4-0.4-0.6-0.4C13.8,246.3,13.5,246.5,13.3,246.7 M7.1,255.7l0.4,0.9H6.2l0.5-0.9v-9l-0.5-1.1h1.3l2.2,7.4v-6.3l-0.4-1.1
	h1.3l-0.4,1.1v11l-3.1-9.9V255.7z M-1.3,256.3c-0.5-0.2-0.7-0.6-0.9-1.3c-0.2-0.4-0.2-1.1-0.5-1.8c0-0.7-0.2-1.3-0.2-2
	c0-0.7,0.2-1.6,0.2-2.2c0.2-0.6,0.2-1.2,0.5-1.8c0.2-0.5,0.4-0.9,0.9-1.3c0.1-0.2,0.4-0.5,0.8-0.5c0.5,0,0.6,0.2,0.9,0.5
	c0.4,0.5,0.7,0.9,0.9,1.3c0.2,0.6,0.2,1.2,0.4,1.8v2.2v2c-0.2,0.7-0.2,1.4-0.4,1.8c-0.2,0.7-0.5,1.1-0.9,1.3
	C0.2,256.8,0,257-0.5,257C-0.9,256.8-1.2,256.8-1.3,256.3 M-1.2,246.7c-0.1,0.5-0.1,0.7-0.4,1.1c0,0.5-0.2,1.2-0.2,1.6v1.8v1.6
	c0,0.6,0.2,1.2,0.2,1.6c0.3,0.4,0.3,0.9,0.4,1.1c0.3,0.4,0.5,0.4,0.7,0.4c0.2,0,0.5,0,0.6-0.4c0.2-0.2,0.2-0.7,0.5-1.1
	c0-0.5,0-1,0.2-1.6v-1.6v-1.8c-0.2-0.4-0.2-1-0.2-1.6c-0.2-0.5-0.2-0.6-0.5-1.1c-0.2-0.2-0.4-0.4-0.6-0.4
	C-0.7,246.3-0.9,246.5-1.2,246.7 M-5.6,245.6h1.8l-0.4,1.1v9l0.4,0.9h-1.8l0.5-0.9v-9L-5.6,245.6z M-8,255.7l0.5,0.9h-1.8l0.4-0.9
	v-9.2h-0.9l-0.7,1.3v-2.2h4v2.2l-0.6-1.3H-8V255.7z M-13.1,245.6h1.8l-0.5,1.1v9l0.5,0.9h-1.8l0.4-0.9v-9L-13.1,245.6z M-18.7,256.6
	l0.5-0.9v-9l-0.5-1.1h2.2c0.5,0,0.7,0.2,0.9,0.4c0.4,0.5,0.6,0.9,0.8,1.3c0.2,0.5,0.2,1.1,0.5,1.8c0,0.6,0.2,1.3,0.2,2
	c0,0.7-0.2,1.3-0.2,2c-0.3,0.7-0.3,1.4-0.5,1.8c-0.2,0.5-0.5,0.9-0.8,1.1c-0.2,0.5-0.5,0.5-0.9,0.5H-18.7z M-17.4,255.7h0.7
	c0.2,0,0.5,0,0.7-0.2c0.2-0.5,0.5-0.7,0.5-1.1c0.2-0.5,0.2-1,0.4-1.6v-1.6v-1.6c-0.2-0.6-0.2-1.1-0.4-1.6c0-0.5-0.2-0.9-0.5-1.1
	c-0.2-0.2-0.5-0.4-0.7-0.4h-0.7V255.7z M-23.2,255.7l0.5,0.9h-1.6l0.7-0.9l1.6-10.1h0.7l1.6,10.1l0.7,0.9h-2l0.6-0.9l-0.3-2h-1.7
	L-23.2,255.7z M-21.8,248.3l-0.9,4.4h1.5L-21.8,248.3z M-24.7,255.7l-1.3-4.5c0.5,0,0.7-0.4,0.9-0.9c0.2-0.4,0.2-1.1,0.2-1.5
	c0-0.4,0-0.9-0.2-1.4c0-0.4-0.2-0.7-0.4-0.9c-0.2-0.2-0.2-0.5-0.5-0.7c-0.2,0-0.4-0.2-0.9-0.2h-1.8l0.4,1.1v9l-0.4,0.9h1.8l-0.4-0.9
	v-4h0.7l1.4,4.9h1.1L-24.7,255.7z M-27.4,246.5h0.7l0.2,0.2c0.2,0.2,0.2,0.2,0.4,0.5v0.6c0.2,0.2,0.2,0.7,0.2,0.9
	c0,0.2,0,0.5-0.2,0.6v0.7c-0.2,0.2-0.2,0.5-0.4,0.5c0,0.2-0.2,0.2-0.2,0.2h-0.7V246.5z M-31.2,255.7l0.6,0.9h-1.8l0.4-0.9v-9.2h-0.8
	l-0.7,1.3v-2.2h3.8v2.2l-0.5-1.3h-1.1V255.7z"/>
<rect x="171.9" y="181.7" class="st1" width="3.7" height="190.1"/>
<path class="st1" d="M244.1,181.1v6.4c-1.3-0.4-2.4-0.4-3.2,0c-0.9,0.4-1.7,1.1-2.4,2.3c-0.7,1.2-1,3.1-1,5.8v9.6v23.5
	c0,9.5,0,19.8,0.1,31.1c0,11.3,0.1,21.9,0.1,31.8v25.8v13.2c0,13.7,1.5,23.4,4.4,29.1c2.9,5.7,7.2,8.6,12.9,8.6h0.3h0.3
	c5.4,0,9.5-2.9,12.7-8.6c3.2-5.7,4.7-15.4,4.7-29.1v-20.8V296V195.5c0-2.7-0.3-4.6-0.9-5.8c-0.6-1.2-1.4-1.9-2.2-2.3
	c-1.1-0.4-2.3-0.4-3.5,0v-6.4H298v6.4c-1.1-0.4-2.2-0.4-3.2,0c-0.9,0.4-1.6,1.1-2.2,2.3c-0.7,1.2-1,3.1-1,5.8v142.2
	c0,5.7-1.1,10.8-3.3,15.4c-2.3,4.5-5.1,8.4-8.7,11.6c-3.5,3.2-7.4,5.6-11.7,7.2c-4.3,1.6-8.5,2.4-12.5,2.4c-4.3,0-8.5-0.8-12.8-2.4
	c-4.2-1.6-8.2-4-11.6-7.2c-3.4-3.2-6.2-7-8.3-11.5c-2.1-4.4-3.1-9.5-3.1-15.2v-7.6v-16.8v-22.8c0-8.4-0.1-16.9-0.1-25.6
	c-0.1-8.7-0.1-17.2-0.1-25.6v-22.5v-15.6v-5.9c0-2.7-0.4-4.6-1.2-5.8c-0.8-1.2-1.6-1.9-2.5-2.3c-0.8-0.4-1.8-0.4-3.2,0v-6.4H244.1z"
	/>
<path class="st1" d="M385.4,241.4c0,5.8-0.9,11-2.4,15.3c-1.6,4.3-3.5,8-5.8,10.9c-2.2,2.9-4.6,5.2-7.2,6.7c-2.6,1.5-5,2.3-7.1,2.3
	c2,0,4.3,0.7,6.9,2.1c2.5,1.5,5,3.6,7.3,6.6c2.3,2.9,4.3,6.7,5.9,11.2c1.6,4.6,2.4,10,2.4,16.1v22.7c0,4.8-0.9,9.4-2.7,13.7
	c-1.8,4.3-4.1,8.3-6.9,11.6c-2.8,3.4-6,6.1-9.3,8.1c-3.4,2.1-6.7,3.1-9.9,3.1h-25.3c-6.8,0-14.2-0.1-22.2-0.3v-6.7
	c1.3,0.6,2.3,0.6,3.2,0c0.9-0.3,1.7-1.1,2.4-2.2c0.7-1.1,1.1-3,1.1-5.4V196c0-2.5-0.4-4.3-1.1-5.5c-0.7-1.1-1.5-1.9-2.4-2.3
	c-0.9-0.3-2-0.3-3.2,0v-6.6h41.2c6.2,0,11.5,0.9,16,2.9c4.5,1.9,8.1,4.6,10.9,7.9c2.8,3.2,5,6.9,6.2,11c1.3,4.1,2.1,8.3,2.1,12.5
	V241.4z M334.2,187.7v85.7h13.1c3.9,0,7.5-0.9,10.9-2.6c3.4-1.7,6.1-5,8.1-10c0.4-0.9,0.6-1.8,0.7-2.7c0.1-0.9,0.3-1.7,0.6-2.7
	c0-0.5,0.1-0.9,0.3-1.3c0.3-1.9,0.6-3.9,0.8-6.1c0.2-2.2,0.2-4.6,0.2-7.2v-30.1c0-4.6-0.8-8.5-2.2-11.6c-1.5-3.1-3.3-5.6-5.2-7.3
	c-1.8-1.3-3.8-2.1-5.8-2.7c-2.2-0.6-4.5-1-7-1.4H334.2z M334.2,365.4h11.2c4.9,0,9.4-1.4,13.8-4.3c4.3-2.9,7.2-7.7,8.7-14.4
	c0.3-1.6,0.6-3.2,0.8-4.9c0.2-1.7,0.2-3.6,0.2-5.5v-24c0-3.5-0.2-6.8-0.8-9.9c0-0.3-0.1-0.6-0.2-0.8v-0.6c-0.2-0.8-0.3-1.8-0.5-2.8
	c-0.2-0.9-0.5-1.9-0.8-2.8c-2-5.3-4.7-9.2-8.3-11.7c-3.5-2.5-7.1-3.7-10.9-3.7h-13.1V365.4z"/>
<path class="st1" d="M469,241.4c0,5.8-0.8,11-2.4,15.3c-1.6,4.3-3.5,8-5.7,10.9c-2.3,2.9-4.6,5.2-7.2,6.7c-2.6,1.5-4.9,2.3-7.1,2.3
	c2,0,4.2,0.7,6.8,2.1c2.5,1.5,5,3.6,7.3,6.6c2.3,2.9,4.3,6.7,5.9,11.2c1.6,4.6,2.4,10,2.4,16.1v22.7c0,4.8-0.9,9.4-2.7,13.7
	c-1.7,4.3-4,8.3-6.8,11.6c-2.9,3.4-6.1,6.1-9.4,8.1c-3.5,2.1-6.7,3.1-9.9,3.1h-25.3c-6.7,0-14.2-0.1-22.1-0.3v-6.7
	c1.2,0.6,2.3,0.6,3.2,0c0.9-0.3,1.6-1.1,2.4-2.2c0.7-1.1,1.1-3,1.1-5.4V196c0-2.5-0.4-4.3-1.1-5.5c-0.7-1.1-1.5-1.9-2.4-2.3
	c-0.9-0.3-2-0.3-3.2,0v-6.6h41.2c6.2,0,11.5,0.9,16,2.9c4.4,1.9,8.1,4.6,10.9,7.9c2.9,3.2,4.9,6.9,6.2,11c1.4,4.1,2,8.3,2,12.5
	V241.4z M417.7,187.7v85.7h13.1c3.9,0,7.6-0.9,10.9-2.6c3.4-1.7,6.1-5,8-10c0.4-0.9,0.6-1.8,0.6-2.7c0.1-0.9,0.3-1.7,0.7-2.7
	c0-0.5,0-0.9,0.2-1.3c0.4-1.9,0.7-3.9,0.8-6.1c0.2-2.2,0.3-4.6,0.3-7.2v-30.1c0-4.6-0.7-8.5-2.3-11.6c-1.5-3.1-3.3-5.6-5.2-7.3
	c-1.8-1.3-3.7-2.1-5.8-2.7c-2.1-0.6-4.5-1-6.9-1.4H417.7z M417.7,365.4h11.2c4.9,0,9.5-1.4,13.8-4.3c4.4-2.9,7.2-7.7,8.7-14.4
	c0.4-1.6,0.7-3.2,0.8-4.9c0.2-1.7,0.3-3.6,0.3-5.5v-24c0-3.5-0.3-6.8-0.8-9.9c0-0.3-0.1-0.6-0.3-0.8v-0.6c-0.2-0.8-0.3-1.8-0.5-2.8
	c-0.2-0.9-0.5-1.9-0.8-2.8c-2-5.3-4.7-9.2-8.3-11.7c-3.6-2.5-7.2-3.7-10.9-3.7h-13.1V365.4z"/>
</svg>
